<?xml version="1.0" encoding="utf-8"?>
<!-- Generator: Adobe Illustrator 27.0.0, SVG Export Plug-In . SVG Version: 6.00 Build 0)  -->
<svg version="1.1" id="_x31_6" xmlns="http://www.w3.org/2000/svg" xmlns:xlink="http://www.w3.org/1999/xlink" x="0px" y="0px"
	 viewBox="0 0 4680 3056.2" style="enable-background:new 0 0 4680 3056.2;" xml:space="preserve">
<style type="text/css">
	.st0{fill:#FFD7BE;}
	.st1{fill:#3B9382;}
	.st2{fill:#317C6D;}
	.st3{fill:#4FB29F;}
	.st4{fill:#67CEBB;}
	.st5{fill:#75A3DB;}
	.st6{fill:#5360A6;}
	.st7{fill:#62A4A1;}
	.st8{fill:#FFDA04;}
	.st9{fill:#CF3045;}
	.st10{opacity:0.45;}
	.st11{fill:#B0CDF8;}
	.st12{fill:#FFFFFF;}
	.st13{fill:#3F65AE;}
	.st14{fill:#2C529E;}
	.st15{fill:#1F2F7A;}
	.st16{fill:#F19A6D;}
	.st17{fill:#EF7C59;}
	.st18{fill:#941237;}
	.st19{fill:#141F35;}
	.st20{fill:#9E4C23;}
	.st21{fill:#38261F;}
	.st22{fill:#872020;}
	.st23{fill:#892020;}
	.st24{fill:#522020;}
	.st25{fill:#AE2020;}
	.st26{fill:#C53529;}
	.st27{fill:#1A2E35;}
	.st28{fill:#F66B00;}
	.st29{fill:#F68B00;}
	.st30{fill:#375A64;}
	.st31{fill:#C92F48;}
	.st32{fill:#D34827;}
	.st33{fill:#FF9DAA;}
	.st34{fill:#4D7772;}
	.st35{fill:#385E4C;}
	.st36{fill:#477D5D;}
	.st37{fill:#FFC043;}
	.st38{fill:#FDD305;}
	.st39{fill:#EE2B66;}
	.st40{fill:#9A53B6;}
	.st41{fill:#FDBE23;}
	.st42{fill:#311C45;}
	.st43{fill:#DEBF95;}
	.st44{fill:#0092C9;}
	.st45{fill:#D74055;}
	.st46{fill:#161310;}
	.st47{fill:#FF5390;}
	.st48{fill:#CA91AB;}
</style>
<g>
	<g>
		<g>
			<path class="st0" d="M4094.6,1078.4c-68.1-44.4-141.5-80.9-216.2-111c-151.1-61.1-307.1-96.3-432.9-119
				c64.7-168.6,69.1-323,1.1-447c-221.7-404.1-1421.4-589-2272.6-21.2C76.3,1112.5,236.2,2005.6,305.6,2219.6
				c17.7,54.7,71.2,163.1,159.7,273.7c82.9,103.6,196.6,209.1,340.5,273.9c71.3,32.1,152.4,63.7,244.2,93.1
				c21.4,6.9,43.4,13.6,66,20.3c10.5,3.1,21.2,6.1,31.9,9.2c67.6,19,140.3,36.8,218.5,52.9c256.9,52.9,572.5,87.7,957.6,87.4
				c852-0.7,1317.7-270.3,1317.7-270.3h-4.1c14.8-8.3,28.1-15.9,38.2-20.9c54.2-27,107.6-55.8,159.8-86.5
				c38.3-22.5,132.6-80.8,235.9-173.5c160.5-143.9,342.7-370.8,371.2-675.6C4476,1445,4313.3,1221,4094.6,1078.4z"/>
		</g>
	</g>
	<g>
		<g>
			<g>
				<g>
					<g>
						<g>
							<path class="st1" d="M4066.5,1804.2c-174.4,338.7-153.8,657.8-153.8,657.8l88.1,28.5c0,0,104.9-278.6,283.8-503.7
								c179-225.1,213-585.6,213-585.6S4240.9,1465.5,4066.5,1804.2z"/>
						</g>
					</g>
					<g>
						<g>
							<path class="st2" d="M3977.9,2457.6c117.9-528.9,383.3-894.8,383.3-894.8c-293.4,297.9-424.9,881.3-424.9,881.3
								L3977.9,2457.6z"/>
						</g>
					</g>
					<g>
						<g>
							<path class="st3" d="M4284.6,1986.8c-204.5,114.3-322.4,520.2-322.4,520.2l100.9,3.7c46.2-114.6,220.7-201.6,360.7-290.4
								c140-88.9,239.8-312.7,239.8-312.7S4489.1,1872.5,4284.6,1986.8z"/>
						</g>
					</g>
					<g>
						<g>
							<path class="st3" d="M3702.5,1596.7c0,0-50.2,239.9,11.3,393.9c61.5,154,152,326.7,122.3,446.6l84,56.1
								c0,0,142.1-398.1,43.3-610.4C3864.6,1670.5,3702.5,1596.7,3702.5,1596.7z"/>
						</g>
					</g>
					<g>
						<g>
							<path class="st4" d="M3966.3,2528.5l43.2-6.3c131.2-320.8,387.9-485.3,387.9-485.3C4070.5,2185,3979.9,2514.6,3966.3,2528.5z
								"/>
						</g>
					</g>
					<g>
						<g>
							<path class="st4" d="M3840.7,1856.8c0,0,111.7,283.7,30.2,620.6l31.3,30.4C3899.3,2488.5,4018.9,2168.4,3840.7,1856.8z"/>
						</g>
					</g>
				</g>
			</g>
		</g>
		<g>
			<g>
				<g>
					<g>
						<g>
							<path class="st1" d="M369.7,1438.7c0,0-113.3,194.3-11,501.5c102.3,307.2,308.6,484.3,308.6,484.3l69.6-36.6
								c0,0-107.1-229.2-137.7-471.8C568.6,1673.5,369.7,1438.7,369.7,1438.7z"/>
						</g>
					</g>
					<g>
						<g>
							<path class="st2" d="M670.4,2399.5l32.9-17.3c-251.6-385.9-316.4-764.6-316.4-764.6C393.8,1973,670.4,2399.5,670.4,2399.5z"
								/>
						</g>
					</g>
					<g>
						<g>
							<path class="st3" d="M599.2,1916.1c-52,192.2,124.8,505,124.8,505l62.2-59.1c-42.2-96.1,8.5-253.9,37.7-391.8
								c29.1-137.9-47.6-331.6-47.6-331.6S651.2,1723.9,599.2,1916.1z"/>
						</g>
					</g>
					<g>
						<g>
							<path class="st3" d="M345.3,2049.7c-187.8-66.1-329-11.3-329-11.3s116.1,173,246.2,227.1c130.2,54.1,288.9,101.7,344.2,190.9
								l84-17.8C690.8,2438.6,533.1,2115.7,345.3,2049.7z"/>
						</g>
					</g>
					<g>
						<g>
							<path class="st4" d="M696.7,1877.3c-104.1,286.8,42.5,537.6,42.8,554.1l21.8-30C644.2,2131.1,696.7,1877.3,696.7,1877.3z"/>
						</g>
					</g>
					<g>
						<g>
							<path class="st4" d="M256.5,2108.8c0,0,238.9,100.6,395.3,350.2l37.1-1C675.5,2448.4,551.8,2185.5,256.5,2108.8z"/>
						</g>
					</g>
				</g>
			</g>
		</g>
	</g>
	<g>
		<g>
			<g>
				<g>
					<g>
						<g>
							<g>
								<g>
									<g>
										<path class="st5" d="M3743.7,245.3c-10-3.5-20.8-5.3-32-5.3H1748.8c-54.3,0-98.3,44-98.3,98.3v1275.5
											c0,50.6,38.2,92.3,87.4,97.7c3.6,0.4,7.2,0.6,10.9,0.6h1962.9c54.3,0,98.3-44,98.3-98.3V338.2
											C3810,295.1,3782.3,258.5,3743.7,245.3z"/>
									</g>
								</g>
							</g>
							<g>
								<g>
									<g>
										<path class="st6" d="M3711.7,239.9H1748.8c-54.3,0-98.2,44-98.2,98.2v101.7H3810V338.2
											C3810,283.9,3766,239.9,3711.7,239.9z"/>
									</g>
								</g>
								<g>
									<g>
										<g>
											<path class="st7" d="M1984.5,306.4c-18.5,0-33.4,15-33.4,33.4c0,18.5,15,33.4,33.4,33.4c18.5,0,33.4-15,33.4-33.4
												C2017.9,321.4,2002.9,306.4,1984.5,306.4z"/>
										</g>
									</g>
									<g>
										<g>
											<path class="st8" d="M1897.3,306.4c-18.5,0-33.4,15-33.4,33.4c0,18.5,15,33.4,33.4,33.4c18.5,0,33.4-15,33.4-33.4
												C1930.8,321.4,1915.8,306.4,1897.3,306.4z"/>
										</g>
									</g>
									<g>
										<g>
											<path class="st9" d="M1808,306.4c-18.5,0-33.4,15-33.4,33.4c0,18.5,15,33.4,33.4,33.4c18.5,0,33.4-15,33.4-33.4
												C1841.4,321.4,1826.4,306.4,1808,306.4z"/>
										</g>
									</g>
								</g>
							</g>
						</g>
					</g>
				</g>
			</g>
			<g class="st10">
				<g>
					<g>
						<path class="st11" d="M1738,1711.4c3.6,0.4,7.2,0.6,10.9,0.6h904.8l267-1272.2h-732.2C2038.5,860.2,1839.9,1418.2,1738,1711.4
							z"/>
					</g>
				</g>
				<g>
					<g>
						<path class="st11" d="M2984,1712h539.1l191.4-1272.2h-407.4C3200.1,858,3057.9,1415.7,2984,1712z"/>
					</g>
				</g>
			</g>
		</g>
		<g>
			<g>
				<g>
					<g>
						<g>
							<path class="st12" d="M2852.1,829c-13.8,0-25.1,10.9-25.1,24.3l0.1,103.9l-6.4-0.5c-0.6,0-15,0.1-26.8,11.7
								c-10.4,10.2-15.7,26.3-15.7,47.8v2.9h-11.5v-2.9c0-24.7,6.5-43.6,19.2-56c10.5-10.3,23.1-13.5,30-14.5l0.1-192.9
								c-2.4-11.3-12.6-19.3-24.6-19.3c-13.9,0-25.2,10.9-25.2,24.3v150.8h-10.7V719.8c0-13.4-11.3-24.3-25.2-24.3
								c-13.9,0-25.2,10.9-25.2,24.3v188.8h-11.1V741.9c0-13.4-11.3-24.3-25.2-24.3c-13.9,0-25.2,10.9-25.2,24.3v166.8h-10V795.4
								c0-13.4-11.3-24.3-25.2-24.3c-13.9,0-25.2,10.9-25.2,24.3l0.3,251.8c0,91.3,81,93.9,82,93.9l126.7-0.4
								c29.2,0,84.4-17.7,84.4-84.9l0.2-93.7l0.3,0.2V853.3C2877.2,839.9,2866,829,2852.1,829z"/>
						</g>
					</g>
				</g>
				<g>
					<g>
						<g>
							<path class="st12" d="M2975.3,673.3c-31.8-31.8-68.9-56.8-110.2-74.3c-42.7-18.1-88.1-27.2-134.9-27.2
								c-46.8,0-92.2,9.2-134.9,27.2c-41.3,17.5-78.3,42.4-110.2,74.3c-31.8,31.8-56.8,68.9-74.3,110.2
								c-18.1,42.7-27.2,88.1-27.2,134.9c0,46.8,9.2,92.2,27.2,134.9c17.5,41.3,42.4,78.3,74.3,110.2
								c31.8,31.8,68.9,56.8,110.2,74.3c42.7,18.1,88.1,27.2,134.9,27.2c46.8,0,92.2-9.2,134.9-27.2c41.3-17.5,78.3-42.4,110.2-74.3
								c31.8-31.8,56.8-68.9,74.3-110.2c18.1-42.7,27.2-88.1,27.2-134.9c0-46.8-9.2-92.2-27.2-134.9
								C3032.1,742.2,3007.1,705.1,2975.3,673.3z M2730.3,1223.1c-168.1,0-304.8-136.7-304.8-304.8c0-168.1,136.7-304.8,304.8-304.8
								c168.1,0,304.8,136.7,304.8,304.8C3035.1,1086.4,2898.3,1223.1,2730.3,1223.1z"/>
						</g>
					</g>
				</g>
			</g>
			<g>
				<g>
					<g>
						<g>
							<path class="st12" d="M2010.1,1367l-25.8,194.1h52.2l3-34.9h18.1l2.7,34.9h51.6l-28.9-194.1H2010.1z M2038.9,1491.8
								c1.3-17.2,4.5-44.4,9.7-81.5c2.6,32.4,5.1,59.6,7.7,81.5H2038.9z"/>
						</g>
					</g>
					<g>
						<g>
							<path class="st12" d="M2214.8,1371.6c-9.7-5.7-21.9-8.6-36.8-8.6c-11,0-20.6,1.9-29.1,5.6c-8.4,3.7-15,8.8-19.8,15.3
								c-4.8,6.5-7.6,13.2-8.6,20.2c-1,7-1.4,17.5-1.4,31.5v56.7c0,19,1.6,33.3,4.7,42.7c3.1,9.5,9.5,16.9,19.1,22.2
								c9.6,5.4,21.8,8,36.6,8c14.2,0,26.2-3.2,35.9-9.5c9.7-6.3,16-13.7,18.8-22.1c2.8-8.4,4.3-22.7,4.3-42.7v-7.6h-50.5v24.4
								c0,10.7-0.6,17.4-1.7,20.3c-1.2,2.9-3.6,4.3-7.4,4.3c-3.9,0-6.4-1.4-7.6-4.3c-1.1-2.9-1.7-9-1.7-18.5v-90.2
								c0-9.8,0.6-16.2,1.7-19.2c1.1-3,3.8-4.4,7.9-4.4c3.7,0,6.1,1.2,7.1,3.7c1.1,2.4,1.6,8.6,1.6,18.4v33.7h50.5v-18.4
								c0-18.1-1.5-31.5-4.6-40C2230.8,1384.5,2224.4,1377.3,2214.8,1371.6z"/>
						</g>
					</g>
					<g>
						<g>
							<path class="st12" d="M2350.7,1371.6c-9.7-5.7-21.9-8.6-36.8-8.6c-11,0-20.6,1.9-29.1,5.6c-8.4,3.7-15,8.8-19.8,15.3
								c-4.8,6.5-7.6,13.2-8.6,20.2c-1,7-1.4,17.5-1.4,31.5v56.7c0,19,1.6,33.3,4.7,42.7c3.1,9.5,9.5,16.9,19.1,22.2
								c9.6,5.4,21.8,8,36.6,8c14.2,0,26.2-3.2,35.9-9.5c9.7-6.3,16-13.7,18.8-22.1c2.8-8.4,4.3-22.7,4.3-42.7v-7.6h-50.5v24.4
								c0,10.7-0.6,17.4-1.7,20.3c-1.2,2.9-3.6,4.3-7.4,4.3c-3.9,0-6.4-1.4-7.6-4.3c-1.1-2.9-1.7-9-1.7-18.5v-90.2
								c0-9.8,0.6-16.2,1.7-19.2c1.1-3,3.8-4.4,7.9-4.4c3.7,0,6.1,1.2,7.1,3.7c1.1,2.4,1.6,8.6,1.6,18.4v33.7h50.5v-18.4
								c0-18.1-1.5-31.5-4.6-40C2366.8,1384.5,2360.4,1377.3,2350.7,1371.6z"/>
						</g>
					</g>
					<g>
						<g>
							<polygon class="st12" points="2443,1479.6 2474.5,1479.6 2474.5,1442.7 2443,1442.7 2443,1405.9 2476.7,1405.9 2476.7,1367 
								2392.5,1367 2392.5,1561.1 2480,1561.1 2480,1522.3 2443,1522.3 							"/>
						</g>
					</g>
					<g>
						<g>
							<path class="st12" d="M2554.5,1437.3c-7.8-4.6-12.6-8.6-14.3-11.9c-1.7-3.3-2.6-8.2-2.6-14.6c0-5,0.8-8.8,2.3-11.3
								c1.6-2.5,3.9-3.7,6.9-3.7c2.8,0,4.8,0.9,6,2.8c1.2,1.8,1.8,6.1,1.8,12.8v14.4h46.9v-7.7c0-15.4-1.5-26.4-4.5-32.8
								c-3-6.4-9.1-11.8-18.3-16c-9.2-4.2-20.4-6.4-33.5-6.4c-12,0-22.2,1.9-30.7,5.8c-8.5,3.9-14.6,9.3-18.4,16.1
								c-3.8,6.9-5.7,17.7-5.7,32.6c0,10.3,1.3,18.8,4,25.4c2.7,6.6,6.1,11.8,10.1,15.6c4.1,3.8,12.4,9.8,24.9,18.1
								c12.6,8.2,20.4,14.1,23.6,17.6c3.1,3.5,4.7,11,4.7,22.4c0,5.2-0.8,9.1-2.5,11.8c-1.6,2.6-4.1,4-7.5,4c-3.4,0-5.7-1-7-3.1
								c-1.3-2.1-2-6.8-2-14v-23.6h-46.9v12.7c0,14.6,1.5,25.8,4.4,33.7c3,7.9,9.2,14.4,18.8,19.6c9.5,5.1,21.1,7.7,34.6,7.7
								c12.3,0,23.1-2.2,32.4-6.7c9.3-4.4,15.5-9.9,18.8-16.5c3.2-6.6,4.9-16.7,4.9-30.6c0-19-2.9-32.8-8.8-41.4
								C2591.1,1461.6,2576.9,1450.6,2554.5,1437.3z"/>
						</g>
					</g>
					<g>
						<g>
							<path class="st12" d="M2681.4,1437.3c-7.8-4.6-12.6-8.6-14.3-11.9c-1.8-3.3-2.6-8.2-2.6-14.6c0-5,0.8-8.8,2.3-11.3
								c1.6-2.5,3.9-3.7,6.9-3.7c2.8,0,4.8,0.9,6,2.8c1.2,1.8,1.8,6.1,1.8,12.8v14.4h46.9v-7.7c0-15.4-1.5-26.4-4.5-32.8
								c-3-6.4-9.1-11.8-18.3-16c-9.2-4.2-20.4-6.4-33.5-6.4c-12,0-22.2,1.9-30.7,5.8c-8.5,3.9-14.6,9.3-18.4,16.1
								c-3.8,6.9-5.7,17.7-5.7,32.6c0,10.3,1.3,18.8,4,25.4c2.7,6.6,6.1,11.8,10.1,15.6c4.1,3.8,12.4,9.8,24.9,18.1
								c12.6,8.2,20.4,14.1,23.6,17.6c3.1,3.5,4.7,11,4.7,22.4c0,5.2-0.8,9.1-2.5,11.8c-1.6,2.6-4.1,4-7.5,4c-3.4,0-5.7-1-7-3.1
								c-1.3-2.1-2-6.8-2-14v-23.6h-46.9v12.7c0,14.6,1.5,25.8,4.4,33.7c3,7.9,9.2,14.4,18.8,19.6c9.5,5.1,21.1,7.7,34.6,7.7
								c12.3,0,23.1-2.2,32.4-6.7c9.3-4.4,15.5-9.9,18.8-16.5c3.2-6.6,4.9-16.7,4.9-30.6c0-19-2.9-32.8-8.8-41.4
								C2718.1,1461.6,2703.9,1450.6,2681.4,1437.3z"/>
						</g>
					</g>
				</g>
				<g>
					<g>
						<g>
							<path class="st12" d="M2901.8,1377.9c-4.6-5.3-11.4-9.1-20.3-11.4c-8.9-2.3-26-3.5-51.3-3.5h-39.2v201.4h66.1
								c12.5,0,21.9-0.7,28.1-2.1c6.2-1.4,11.4-3.8,15.7-7.2c4.2-3.4,7.2-8.2,8.9-14.3c1.7-6.1,2.5-18.2,2.5-36.3V1434
								c0-19.1-0.6-31.9-1.7-38.4C2909.3,1389.1,2906.4,1383.2,2901.8,1377.9z M2859.9,1500.7c0,13.4-0.9,21.7-2.6,24.7
								c-1.7,3-6.4,4.5-13.9,4.5v-132.5c5.7,0,9.6,0.6,11.7,1.8c2.1,1.2,3.4,3.1,4,5.7c0.6,2.6,0.9,8.4,0.9,17.5V1500.7z"/>
						</g>
					</g>
					<g>
						<g>
							<polygon class="st12" points="2984.1,1479.8 3016.9,1479.8 3016.9,1441.4 2984.1,1441.4 2984.1,1403.2 3019.1,1403.2 
								3019.1,1362.9 2931.8,1362.9 2931.8,1564.4 3022.6,1564.4 3022.6,1524 2984.1,1524 							"/>
						</g>
					</g>
					<g>
						<g>
							<polygon class="st12" points="3110.8,1453.6 3081.4,1362.9 3037.6,1362.9 3037.6,1564.4 3081.4,1564.4 3081.4,1472.8 
								3108.7,1564.4 3154.6,1564.4 3154.6,1362.9 3110.8,1362.9 							"/>
						</g>
					</g>
					<g>
						<g>
							<rect x="3175.6" y="1362.9" class="st12" width="52.4" height="201.4"/>
						</g>
					</g>
					<g>
						<g>
							<polygon class="st12" points="3301.4,1479.8 3334.1,1479.8 3334.1,1441.4 3301.4,1441.4 3301.4,1403.2 3336.3,1403.2 
								3336.3,1362.9 3249,1362.9 3249,1564.4 3339.8,1564.4 3339.8,1524 3301.4,1524 							"/>
						</g>
					</g>
					<g>
						<g>
							<path class="st12" d="M3465.7,1377.9c-4.6-5.3-11.4-9.1-20.3-11.4c-8.9-2.3-26-3.5-51.3-3.5h-39.2v201.4h66.1
								c12.5,0,21.9-0.7,28.1-2.1c6.2-1.4,11.4-3.8,15.7-7.2c4.2-3.4,7.2-8.2,8.9-14.3c1.7-6.1,2.5-18.2,2.5-36.3V1434
								c0-19.1-0.6-31.9-1.7-38.4C3473.3,1389.1,3470.4,1383.2,3465.7,1377.9z M3423.8,1500.7c0,13.4-0.9,21.7-2.6,24.7
								c-1.7,3-6.4,4.5-13.9,4.5v-132.5c5.7,0,9.6,0.6,11.7,1.8c2.1,1.2,3.4,3.1,4,5.7c0.6,2.6,0.9,8.4,0.9,17.5V1500.7z"/>
						</g>
					</g>
				</g>
			</g>
		</g>
	</g>
	<g>
		<g>
			<g>
				<g>
					<g>
						<g>
							<path class="st13" d="M1473.3,1884.2c-0.4-6.3-0.7-12-1.1-17.7c-1.3-20.4-3.1-191.2-5.5-203l-179.6-19.8l-21.9-2.4
								l-417.2-48.8c0,0-2.7,27.3-3.9,49.9c-0.1,1.2-0.1,2.5-0.2,3.8c-0.3,5.9-0.7,12.4-1.1,19.5c-1.8,33.6-4.3,234.9-7.1,292.2
								c-9.7,196.2-16.3,361.9-20.3,474.2c81.8,36.8,174.7,73,279.9,106.8c17.5-169.1,35.2-205.9,50.5-268.3c0-0.1,0-0.1,0-0.1
								c0-0.1,0.1-0.2,0.1-0.3c0-0.1,0.1-0.2,0.1-0.3c0-0.1,0-0.1,0-0.2v0.1l22.2,202.6l2.7,89.9c12,3.5,24.3,7,36.6,10.5
								c77.5,21.8,160.9,42.2,250.5,60.7c6-118.9,25-486.2,15.8-735.1C1473.7,1893.3,1473.6,1888.7,1473.3,1884.2z"/>
						</g>
					</g>
					<g>
						<g>
							<path class="st14" d="M1472.3,1866.6c-1.3-20.4-3.1-191.2-5.5-203l-179.6-19.8c-77,6.3-154.1,12.5-231.1,18.7
								c-70.9,5.7-142.7,11.5-213.1,3.2c-1.8,33.6-4.3,234.9-7.1,292.2c214,18.9,431.4-1.4,638.2-59.8c-0.2-4.8-0.4-9.5-0.6-14
								C1473,1878,1472.7,1872.2,1472.3,1866.6z"/>
						</g>
					</g>
					<g>
						<g>
							<path class="st14" d="M1145.9,2270.4c0,0.1,0,0.1,0,0.2c0-0.2,0.1-0.4,0.1-0.5c0-0.1,0.1-0.2,0.1-0.3c0,0,0-0.1,0-0.1
								l22.2,202.6l2.7,89.9c12,3.5,24.3,7,36.6,10.5c8.3-123.8,20.4-275.5,29.8-371.3c-19.7,17.1-53.1,41.3-89,53.8
								C1147.5,2260,1146.6,2265.1,1145.9,2270.4z"/>
						</g>
					</g>
				</g>
				<g>
					<g>
						<g>
							<g>
								<path class="st15" d="M1174.7,1668.9c-1.6,0.1-2.7,1.5-2.6,3.1c8.4,105,5.9,468.8-6.4,569.4c-0.2,1.6,0.9,3,2.5,3.2
									c0.1,0,0.2,0,0.3,0c1.4,0,2.6-1.1,2.8-2.5c12.3-100.9,14.8-465.4,6.5-570.6C1177.6,1670,1176.3,1668.8,1174.7,1668.9z"/>
							</g>
						</g>
						<g>
							<g>
								<path class="st15" d="M1230.5,1670.6c-1.6,0.2-2.7,1.6-2.5,3.1c5.6,53.8,11.3,264.2,1.2,317.5c-2.4,12.5-6.3,28.4-15.6,41
									c-9.3,12.6-23.2,19.8-36.2,18.7c-1.6-0.1-2.9,1-3.1,2.6c-0.1,1.6,1,2.9,2.6,3.1c1,0.1,2,0.1,3,0.1c14,0,28.4-7.9,38.2-21.2
									c9.9-13.4,14.1-30.2,16.6-43.3c10.2-53.7,4.5-265.1-1.1-319.2C1233.4,1671.6,1232,1670.5,1230.5,1670.6z"/>
							</g>
						</g>
					</g>
					<g>
						<g>
							<path class="st15" d="M884.3,1857.3c-1.6-0.1-2.9,1.1-3,2.7c-0.2,4.3-0.4,8.8-0.6,13.2c-0.8,18.3-1.6,37.3-3.1,49.5l-0.1,0.6
								c-3.6,30.1-7.7,64.3-39.4,68.7c-1.6,0.2-2.6,1.7-2.4,3.2c0.2,1.4,1.4,2.5,2.8,2.5c0.1,0,0.3,0,0.4,0
								c36-5,40.6-43.1,44.2-73.6l0.1-0.6c1.5-12.4,2.3-31.5,3.1-50c0.2-4.4,0.4-8.9,0.6-13.2
								C887.1,1858.7,885.9,1857.4,884.3,1857.3z"/>
						</g>
					</g>
					<g>
						<g>
							<path class="st15" d="M1469.2,2005.7c-14.1-2.2-27.5-16-34-35.1c-5.9-17.3-6.4-36.6-7-55.2l0-1.2
								c-0.6-19.2-0.7-29.9-0.7-59.8c0-1.6-1.3-2.8-2.8-2.8s-2.8,1.3-2.8,2.8c0,29.9,0.2,40.7,0.7,60l0,1.2
								c0.6,19.1,1.1,38.8,7.3,56.9c8.7,25.6,25.6,36.9,38.5,38.9c0.2,0,0.3,0,0.5,0c1.4,0,2.6-1,2.8-2.4
								C1471.8,2007.4,1470.7,2005.9,1469.2,2005.7z"/>
						</g>
					</g>
				</g>
			</g>
			<g>
				<g>
					<g>
						<g>
							<path class="st16" d="M1666.7,1121.4l-4.4,3l-116.1,1.3l-37.2,0.5c-3.7,1.5-6.3,2.6-7.1,3.2c-2.5,1.4-8.2,9.4-14.1,18.9
								c2.1,5.9,5.1,13.3,9.5,22.2c9.4,19,25,45.3,50.9,81.1c4.7,6.5,9.7,13.3,15.1,20.4c1.8,2.4,3.5,4.6,5.4,6.8
								c0,0.1-0.1,0.2-0.1,0.2c-35.6,90.1-172.7,244.7-172.7,244.7l64,103.2c1.1-0.2,281.2-245.6,299.4-335.4
								c6.2-30.6-23.6-80.3-51.1-118.1C1686.8,1143.6,1666.7,1121.4,1666.7,1121.4z"/>
						</g>
					</g>
					<g>
						<g>
							<path class="st17" d="M1662.3,1124.3l-116.1,1.3c-16.2,14.9-32.5,29.8-48.8,44.7l50.9,81.1c56.2-19.7,110-45.9,160.1-78.1
								c-21.6-29.7-41.7-52-41.7-52L1662.3,1124.3z"/>
						</g>
					</g>
				</g>
				<g>
					<g>
						<path class="st9" d="M1295,774.4c-25,123,192.8,487.8,192.8,487.8l196-149.6c0,0-128.7-184.9-198.8-265.7
							C1414.9,766.1,1302.5,737.8,1295,774.4z"/>
					</g>
				</g>
			</g>
			<g>
				<g>
					<g>
						<g>
							<g>
								<path class="st17" d="M1216.8,649.8h-81.6l-80.9-11c1.7,32.1-3.5,59.8-9.6,79.9c-0.3,1.1-0.6,2.2-1,3.1
									c-0.3,1.1-0.7,2.3-1.1,3.5c-42.6,130.1,67.8,177.4,83.8,184.4c89.5-14.2,97-135.4,97-135.4s-10.9-68.1-10.8-84.4
									C1212.9,677.5,1214.1,664,1216.8,649.8z"/>
							</g>
						</g>
						<g>
							<g>
								<path class="st17" d="M1054.3,638.8c1.7,32.1-3.5,59.8-9.6,79.9c-0.3,1.1-0.6,2.2-1,3.1c98.7,21.4,154-18.7,169-31.9
									c0.1-12.4,1.3-25.9,4-40.2h-81.6L1054.3,638.8z"/>
							</g>
						</g>
					</g>
					<g>
						<g>
							<path class="st9" d="M1394.9,788c-26.6-26.8-92.4-34.6-135.3-36.9c-21.9-1.1-38-0.8-39.8-0.9c3.1,88.8-87.8,146-87.8,146
								s-103.9-42.8-99.9-149.9c-2.2,0.2-24.4,3-52.6,9.2c-41.2,9.1-95,25.2-117.2,50.9c-27.9,32.3-78.5,58.5-44.8,299
								c52.2,372.9-1.5,778.5-1.5,778.5c75.9,25.5,562.1,41.1,672.6-4.7c0,0-14.6-668.9-28.3-796
								C1434.3,841.7,1425,818.3,1394.9,788z"/>
						</g>
					</g>
					<g>
						<g>
							<path class="st18" d="M1219.8,750.2c3.1,88.8-87.8,146-87.8,146s-103.9-42.8-99.9-149.9c-2.2,0.2-24.4,3-52.6,9.2
								c9.1,57,39.7,110.7,84.9,146.7c24.2,19.3,55.3,34.1,85.4,27c22.3-5.3,40.3-21.8,54.6-39.7c31.6-39.2,50.9-88.2,55.2-138.3
								C1237.6,750,1221.6,750.3,1219.8,750.2z"/>
						</g>
					</g>
					<g>
						<g>
							<g>
								<path class="st18" d="M1179.6,1583.7c-89.1,47.5-188.6,64.1-285.8,55.6c59.7,18.5,122.9,13.1,183.6,0.4
									c70.4-14.8,140.5-39.8,200.1-87.4c59.5-47.6,107.7-120.2,118.4-197.3C1347.2,1456.9,1268.8,1536.2,1179.6,1583.7z"/>
							</g>
						</g>
						<g>
							<g>
								<path class="st18" d="M924,1661.6c62.1,31.7,134.5,36,204.1,31.6c54.6-3.4,109.5-12,159.8-33.3
									c50.4-21.3,96.3-56.1,131.3-101.1C1277.8,1659.4,1093.7,1697.6,924,1661.6z"/>
							</g>
						</g>
					</g>
				</g>
				<g>
					<g>
						<g>
							<path class="st18" d="M1467.7,1219c16.2-108.1,4.1-211.4-37.9-358.4C1448.2,1001.2,1456.5,1091.2,1467.7,1219z"/>
						</g>
					</g>
					<g>
						<g>
							<path class="st18" d="M1466,1149.7c-2.3,8.6-0.5,53.1,1.8,67.5c35.1-104,41.8-247.1,26.7-325.6
								C1490.1,982.8,1488.5,1065.9,1466,1149.7z"/>
						</g>
					</g>
				</g>
			</g>
		</g>
		<g>
			<g>
				<g>
					<g>
						<path class="st19" d="M1258.9,244.2c-3.4-13.7-22.2-31.7-53.9-33.4c-31.7-1.7-59,24.8-59,24.8s-11.1-10.3-24-11.1
							c-12.8-0.9-21.4,20.5-21.4,20.5s-20.5-28.2-65.9-17.1c-45.4,11.1-96.5,80.6-96.5,80.6c-84.5,18.5,13.4,322.6,103.5,298.9
							l233.3-196.2c13.8-0.1,6-32.6,6-32.6c25.7-10.3,20.5-59.9,20.5-59.9s17.6-12.8,14.5-40.2
							C1309.4,217.6,1258.9,244.2,1258.9,244.2z"/>
					</g>
				</g>
				<g>
					<g>
						<g>
							<g>
								<path class="st16" d="M1272.9,406.8c-1.3-5.2-2.5-10.4-4-15.5c-30.5-101-92.1-131-190.3-114.8
									c-120,19.8-133.5,158.1-106.5,245.4c2.8,9.1,51.8,12.4,54.7,21.2c0,0-13.2,145.2,118.8,171.6c15.7,3.1,71.6,9.8,83.2-2.7
									c101.5-109.7,48.5-237,48.5-237C1283.7,461.2,1278.9,431.2,1272.9,406.8z"/>
							</g>
						</g>
						<g>
							<g>
								<g>
									<path class="st17" d="M1277.9,473.2c-20.3,18.7-33.4,47.5-33.4,79.7c0,32.2,12.9,60.8,33.1,79.6
										c30.2-83.7-0.5-157.5-0.5-157.5C1277.5,474.4,1277.7,473.8,1277.9,473.2z"/>
								</g>
							</g>
						</g>
						<g>
							<g>
								<path class="st17" d="M1033.4,503.5c-18,0-34.1,10.3-45,26.4c15.5,4.1,36.5,7.6,38.4,13.2c0,0-5.3,58.9,24.9,108.5
									c23.8-9.9,41.1-38.4,41.1-72.2C1092.8,537.4,1066.2,503.5,1033.4,503.5z"/>
							</g>
						</g>
						<g>
							<g>
								<path class="st20" d="M1104.9,439.9c-8.9,3.2-22.5,4.7-23.1,5.1c-12.7,7.8-5.4,12.8-3.4,15.6c1.1,1.7,5.8-1,17.6-4.2
									c25-6.8,35.9-3.5,40.5-11.4c2.7-4.7,2.2-11.5-1.1-14.8C1130.3,425.3,1117.7,435.2,1104.9,439.9z"/>
							</g>
						</g>
						<g>
							<g>
								<path class="st20" d="M1259.1,432c-0.6-0.3-9.2,1.4-16.9,0c-9.3-1.7-21.1-9.7-23.6-5c-1.9,3.4-1,9.6,1.9,13.4
									c4.8,6.4,12.3,1.9,32.2,4.5c9.3,1.2,13.3,2.9,13.9,1.3C1267.3,443.4,1269.9,437.2,1259.1,432z"/>
							</g>
						</g>
						<g>
							<g>
								<path class="st21" d="M1115.4,487.5c-4.1,1.1-6.1,7.2-4.4,13.7c1.7,6.5,6.4,10.9,10.6,9.8c4.1-1.1,6.1-7.2,4.4-13.7
									C1124.2,490.8,1119.5,486.4,1115.4,487.5z"/>
							</g>
						</g>
						<g>
							<g>
								<path class="st21" d="M1235.2,472.3c-3.8,1-5.5,7-3.8,13.5c1.7,6.5,6.1,10.9,9.9,9.9c3.8-1,5.5-7,3.8-13.5
									C1243.4,475.7,1239,471.3,1235.2,472.3z"/>
							</g>
						</g>
						<g>
							<g>
								<path class="st19" d="M1282.8,265.8c-54.6-16.5-146.7-49.9-234.7,1.8c-88,51.7-112.1,115.1-125.2,134.9
									c-16.8,25.4,34.1,125.1,67.7,185.2c10.7,19.2,30.2,15.5,38.4-4.9l-3.9-9.5l7.6-40.9l5.1-153.1c0,0,167.1,8.4,209.5-31.1
									c0,0,15.7,18.2,21.5,43C1268.8,391.3,1337.4,282.3,1282.8,265.8z"/>
							</g>
						</g>
						<g>
							<g>
								<g>
									<path class="st16" d="M982,491.2c-26.4,8.4-40.2,38.9-30.9,68.1c9.3,29.2,38.2,46,64.6,37.6c26.4-8.4,40.2-38.9,30.9-68.1
										C1037.3,499.6,1008.4,482.8,982,491.2z"/>
								</g>
							</g>
							<g>
								<g>
									<path class="st21" d="M998,521.4c-11.3-3.7-21,2.1-21.4,2.4l3,4.9c0.1,0,8-4.7,16.8-1.8c6.5,2.1,12,7.8,16.4,16.8
										c-6.5,1.6-19.5,5.8-22.9,15.3l5.4,1.9c2.8-7.7,16.9-11.5,22.1-12.3l3.6-0.6l-1.4-3.4C1014.1,532.1,1006.9,524.3,998,521.4z
										"/>
								</g>
							</g>
						</g>
						<g>
							<g>
								<path class="st19" d="M1031.6,373.6l1.7,146.3c53.5-9.6,12-175.7,12-175.7L1031.6,373.6z"/>
							</g>
						</g>
						<g>
							<g>
								<path class="st21" d="M1189.6,502.7l-1,5.6c13.7,2.6,34.2,8.6,36.7,14c0.2,0.5,0.3,0.8-0.1,1.5c-6,10.5-21.4,19.8-21.5,19.8
									l2.9,4.9c0.7-0.4,16.8-10.1,23.6-21.9c1.2-2.2,1.3-4.5,0.3-6.7C1225.8,509.9,1195.6,503.8,1189.6,502.7z"/>
							</g>
						</g>
					</g>
				</g>
			</g>
			<g>
				<g>
					<path class="st19" d="M1207.7,655.9c-9.7,3.1-22.5,0.4-22.5,0.4c-20.3,22.4-68.1,7.9-102-6.6c-6.2-7.2-33.1-44.9-33.9-154.9
						c-0.5-65.5-28,0.4-28,0.4s-2.3,110.9,29.6,155.2c30.1,82.1,160.3,78,182.1,67.2c23.4-11.6,32-53.1,32-53.1
						C1232.6,687.1,1207.7,655.9,1207.7,655.9z"/>
				</g>
			</g>
			<g>
				<g>
					<path class="st21" d="M1161.8,606.3l4.1,4.8c0.1-0.1,9.9-8.4,23-12.4c17.1-5.3,31.7-1.2,43.5,12.1l4.7-4.2
						C1204.7,570.1,1162.2,605.9,1161.8,606.3z"/>
				</g>
			</g>
		</g>
		<g>
			<g>
				<g>
					<g>
						<path class="st17" d="M903.6,1169.2c-45.3-44.1-90.6-88.1-136-134.8c-4,77.1-8,154.9,4.4,231.2
							c12.4,76.2,52.2,196.7,102.9,202.7c15.4-78.9,30.7-157.9,46.1-236.8c2.6-13.4,5.1-27.8-0.2-40.4
							C917.2,1182.5,910.3,1175.7,903.6,1169.2z"/>
					</g>
				</g>
				<g>
					<g>
						<g>
							<path class="st9" d="M911.5,774.5c-55.1,5.5-112.4,61-133.2,131.4c-32.9,111.6-40.6,202-51.3,341.6
								c70.4,10,149.9,23.1,220.3,16.2C972.9,1107.5,964.7,767.2,911.5,774.5z"/>
						</g>
					</g>
					<g>
						<g>
							<path class="st18" d="M929.5,1250.3c28.5-136.7,39.1-281.9-7.9-410.4C941.6,975.6,944.3,1113.9,929.5,1250.3z"/>
						</g>
					</g>
				</g>
			</g>
			<g>
				<g>
					<g>
						<path class="st16" d="M825.3,1309.2c-22.1,56-3.9,135.6,38.2,158.5c14.2,7.7,123.9,2.9,150.8-137.7
							c26.8-140.6,45.8-391.6,45.8-391.6L966,919.1C953.3,981.1,864.8,1209.1,825.3,1309.2z"/>
					</g>
				</g>
				<g>
					<g>
						<g>
							<path class="st16" d="M1140.3,764.8c17.3-19.8-16.1-56.1-38.7-60.6c-22.6-4.6-62.7,14.6-62.7,14.6s6-40.1,22.3-46.5
								c16.3-6.4,49.6-2.3,42.9-19.8c-6.7-17.4-60.7-21.7-84.7,8.1c-24,29.8-26.1,83.3-26.1,83.3L966,919.1l94.1,19.2
								c42-28.1,45-86.4,45-86.4c62.7-9.9,38.8-52,38.8-51.9C1158.1,778.9,1140.3,764.8,1140.3,764.8z"/>
						</g>
					</g>
					<g>
						<g>
							<g>
								<g>
									<path class="st17" d="M1102.8,812.6c0.4-1.1-0.2-2.3-1.3-2.7c-1.1-0.4-2.3,0.2-2.7,1.3c-0.1,0.3-2.9,8.6,7.6,17.2
										c0.4,0.3,0.9,0.5,1.4,0.5c0.6,0,1.2-0.3,1.7-0.8c0.7-0.9,0.6-2.3-0.3-3C1101.1,818.6,1102.7,812.9,1102.8,812.6z"/>
								</g>
							</g>
						</g>
						<g>
							<g>
								<g>
									<path class="st17" d="M1103.7,782.3c-1.2,0.2-1.9,1.4-1.7,2.5c0.2,1.2,1.4,1.9,2.5,1.7c26.9-5.5,37.1,13.6,37.6,14.4
										c0.4,0.7,1.1,1.2,1.9,1.2c0.3,0,0.7-0.1,1-0.2c1-0.5,1.5-1.8,0.9-2.9C1145.8,798.7,1133.8,776.2,1103.7,782.3z"/>
								</g>
							</g>
						</g>
						<g>
							<g>
								<g>
									<path class="st17" d="M1076.4,754.4c-1,0.6-1.3,1.9-0.7,2.9c0.6,1,1.9,1.3,2.9,0.7c29.1-17.3,60,8.1,60.3,8.3
										c0.4,0.3,0.9,0.5,1.4,0.5c0.6,0,1.2-0.3,1.6-0.8c0.8-0.9,0.6-2.2-0.3-3C1141.3,762.9,1108.2,735.5,1076.4,754.4z"/>
								</g>
							</g>
						</g>
						<g>
							<g>
								<g>
									<path class="st17" d="M1115.6,816.4c-8,7.6-12.6,18.7-12.3,29.8c0,1.2,1,2.1,2.1,2.1c0,0,0,0,0.1,0c1.2,0,2.1-1,2.1-2.2
										c-0.3-9.9,3.8-19.8,11-26.5c0.9-0.8,0.9-2.2,0.1-3C1117.8,815.6,1116.5,815.6,1115.6,816.4z"/>
								</g>
							</g>
						</g>
					</g>
				</g>
			</g>
		</g>
	</g>
	<g>
		<g>
			<g>
				<g>
					<g>
						<polygon class="st22" points="688.1,2173.8 465.3,2448.5 4071.4,2448.5 3848.6,2173.8 						"/>
					</g>
				</g>
			</g>
			<g>
				<g>
					<g>
						<path class="st23" d="M465.3,2493.3c46.8,58.5,103.3,117.5,169.6,169.5c51.2,40.2,108.2,76.1,170.9,104.4
							c71.3,32.1,152.4,63.7,244.2,93.1c21.4,6.9,43.4,13.6,66,20.3c10.5,3.1,21.2,6.1,31.9,9.2c67.6,19,140.3,36.8,218.5,52.9
							c256.9,52.9,572.5,87.7,957.6,87.4c562.9-0.5,957.2-118.3,1160-198.2c104.1-41,157.7-72.1,157.7-72.1h-4.1
							c14.8-8.3,28.1-15.9,38.2-20.9c54.2-27,107.6-55.8,159.8-86.5c38.3-22.5,132.6-80.8,235.9-173.5v-30.3H465.3V2493.3z"/>
					</g>
				</g>
			</g>
			<g>
				<g>
					<g>
						<rect x="465.3" y="2448.5" class="st24" width="3606.1" height="73.4"/>
					</g>
				</g>
			</g>
		</g>
		<g>
			<g>
				<path class="st25" d="M634.9,2662.8c51.2,40.2,108.2,76.1,170.9,104.4c71.3,32.1,152.4,63.7,244.2,93.1
					c21.4,6.9,43.4,13.6,66,20.3c10.5,3.1,21.2,6.1,31.9,9.2c67.6,19,140.3,36.8,218.5,52.9c256.9,52.9,572.5,87.7,957.6,87.4
					c562.9-0.5,957.2-118.3,1160-198.2C2710.9,2675.1,1031.7,2660.9,634.9,2662.8z"/>
			</g>
		</g>
	</g>
	<g id="XMLID_401_">
		<g>
			<path class="st26" d="M1452.8,68.8c-36.1-4.7-115.4,0.5-95.6,56.9c1,2.8,2.2,5.6,3.5,8.4c-18.8,4.2-33.2,14.4-36.8,34.6
				c-5.4,30.1,22.8,60,49.1,81.9c-27.6,20.9-8.4,51.4,17.6,75.2c-1.3,1.8-2.5,3.7-3.4,6c-11.9,27.5,13.6,61.7,32.4,78.6
				c7.7,6.9,19-4.6,11.2-11.6c-11.3-10.2-26.3-25.8-28.2-41.8c-0.9-7.9,0.6-13.8,3.8-18c13,9.8,25.7,17.4,33.9,21
				c13.9,6,43.2,18.6,49.8-4c6.5-22.2-28.3-36-44.1-40.7c-14.1-4.1-32-5.6-45,1.4c-9.6-9-19.8-21.4-21.5-32.9
				c-1.6-10.8,2.3-17.3,8.8-21c4,3,7.7,5.8,11,8.2c35.5,26.2,88.6,63,135.7,56.5c4.4-0.6,6.5-6,5.6-9.8
				c-9.9-45.4-104-90.3-153.2-74.7c-19.9-15.8-38.5-34.7-45.1-55.2c-8.1-25.3,5.4-35.8,27.1-38.4c25.3,36.5,73.7,64.5,108.2,84.2
				c39.9,22.9,98.8,57.1,147.1,47.2c4.3-0.9,6.4-5.7,5.6-9.7c-12.5-59.4-104.8-100.8-155.4-121c-19.2-7.7-62.1-20.1-97.4-18.3
				c-6.4-9.7-11.1-21-5.9-31.2c14-27.7,71.6-19.4,94.8-15.2c82.8,14.9,151.2,62.8,203.6,127.5c0.6,0.8,2-0.3,1.4-1.1
				C1620.4,134.4,1545.9,80.9,1452.8,68.8z M1456.7,336.8c29.1,14.7,3.1,14.1-12.3,7.2c-8.3-3.8-16.8-8-24.7-13
				C1431.3,328.5,1446.1,331.5,1456.7,336.8z M1431.5,261.2c27.9,6.5,76,22,90.4,51.3c-32.9-0.4-70-25.3-95.3-41.9
				c-5.5-3.6-11.7-7.7-18.1-12.1C1416.7,258.4,1425.1,259.7,1431.5,261.2z M1488.4,173.2c39,19,107.7,49.3,124.3,93.5
				c-36.7,2.9-80.4-21.7-110.3-37.5c-39.5-20.9-81.1-46.3-111.1-80.2C1428.2,151.3,1473.9,166.1,1488.4,173.2z"/>
		</g>
	</g>
	<g>
		<g>
			<g>
				<g>
					<g>
						<g>
							<g>
								<polygon class="st27" points="911.5,2217.6 1302.6,2397.3 2127,2186.4 1779.4,2002.5 								"/>
							</g>
						</g>
					</g>
					<g>
						<g>
							<g>
								<polygon class="st28" points="917.2,2189 1308.3,2368.8 2132.6,2157.8 1785,1973.9 								"/>
							</g>
						</g>
					</g>
					<g>
						<g>
							<g>
								<g>
									<polygon class="st29" points="1033,2183.8 1096.1,2208.4 1168.4,2187.7 1106.5,2164.8 									"/>
								</g>
							</g>
						</g>
						<g>
							<g>
								<g>
									<polygon class="st29" points="1103.9,2212.9 1167.1,2237.5 1239.4,2216.7 1177.4,2193.9 									"/>
								</g>
							</g>
						</g>
						<g>
							<g>
								<g>
									<polygon class="st29" points="1174.8,2241.9 1238,2266.5 1310.3,2245.8 1248.4,2222.9 									"/>
								</g>
							</g>
						</g>
					</g>
					<g>
						<g>
							<g>
								<g>
									<polygon class="st29" points="1121.9,2161 1185.1,2185.6 1257.4,2164.9 1195.5,2142 									"/>
								</g>
							</g>
						</g>
						<g>
							<g>
								<g>
									<polygon class="st29" points="1192.9,2190 1256.1,2214.7 1328.4,2193.9 1266.4,2171 									"/>
								</g>
							</g>
						</g>
						<g>
							<g>
								<g>
									<polygon class="st29" points="1263.8,2219.1 1327,2243.7 1399.3,2223 1337.4,2200.1 									"/>
								</g>
							</g>
						</g>
					</g>
					<g>
						<g>
							<g>
								<g>
									<polygon class="st29" points="1210.9,2138.2 1274.1,2162.8 1346.4,2142.1 1284.5,2119.2 									"/>
								</g>
							</g>
						</g>
						<g>
							<g>
								<g>
									<polygon class="st29" points="1281.9,2167.2 1345.1,2191.8 1417.3,2171.1 1355.4,2148.2 									"/>
								</g>
							</g>
						</g>
						<g>
							<g>
								<g>
									<polygon class="st29" points="1352.8,2196.3 1416,2220.9 1488.3,2200.2 1426.4,2177.3 									"/>
								</g>
							</g>
						</g>
					</g>
					<g>
						<g>
							<g>
								<g>
									<polygon class="st29" points="1299.9,2115.4 1363.1,2140 1435.4,2119.2 1373.5,2096.4 									"/>
								</g>
							</g>
						</g>
						<g>
							<g>
								<g>
									<polygon class="st29" points="1370.9,2144.4 1434,2169 1506.3,2148.3 1444.4,2125.4 									"/>
								</g>
							</g>
						</g>
						<g>
							<g>
								<g>
									<polygon class="st29" points="1441.8,2173.5 1505,2198.1 1577.3,2177.4 1515.3,2154.5 									"/>
								</g>
							</g>
						</g>
					</g>
					<g>
						<g>
							<g>
								<path class="st29" d="M1520.9,1817.4l-212.6,551.3l824.3-211c0,0,11.9-31,30-78c55.7-144.6,169.8-440.6,174.4-450.5
									l-635.3,146.5L1520.9,1817.4z"/>
							</g>
						</g>
					</g>
					<g>
						<g>
							<g>
								<g>
									<path class="st30" d="M1365,2216.3c-32.4,84.1-57.8,152.3-56.7,152.5c1.1,0.2,28.3-67.9,60.7-151.9
										c32.4-84,57.8-152.3,56.7-152.5C1424.6,2064.2,1397.4,2132.3,1365,2216.3z"/>
								</g>
							</g>
						</g>
					</g>
				</g>
				<g>
					<g>
						<g>
							<path class="st31" d="M1865.5,1957.7c-19.8-7.1-47.1,5.6-61.2,28.2c-14,22.7-9.4,46.7,10.4,53.8c19.8,7.1,47.1-5.6,61.2-28.2
								C1889.9,1988.8,1885.3,1964.7,1865.5,1957.7z"/>
						</g>
					</g>
				</g>
			</g>
			<g>
				<g>
					<path class="st28" d="M1659.7,2108.9c-73.9-51.7,12.3-265.4,42.1-333.2l-180.9,41.7l-212.6,551.3l824.3-211c0,0,11.9-31,30-78
						C2021.6,2106.6,1726.1,2155.5,1659.7,2108.9z"/>
				</g>
			</g>
			<g>
				<g>
					<polygon class="st32" points="1302.6,2397.3 2127,2186.4 2132.6,2157.8 1308.3,2368.8 					"/>
				</g>
			</g>
			<g>
				<g>
					<polygon class="st32" points="911.5,2217.6 1302.6,2397.3 1308.3,2368.8 917.2,2189 					"/>
				</g>
			</g>
			<g>
				<g>
					<polygon class="st32" points="1289.9,2360.8 1308.3,2368.8 1520.9,1817.4 1503.8,1800.6 					"/>
				</g>
			</g>
			<g>
				<g>
					<polygon class="st33" points="1503.8,1800.6 1520.9,1817.4 2337.1,1629.3 2316.3,1619.7 					"/>
				</g>
			</g>
		</g>
		<g>
			<g>
				<g>
					<g>
						<g>
							<g>
								<path class="st34" d="M2498,1818.7c-30.3-4.7-62.7,3.8-85.8,21.8c-39.3,30.6-47.9,81.2-49.8,127.5
									c-3,74.1,5.2,148.6,24.2,220.8l155.7,14.9c14.3-85.1,25.7-170.4,34.3-256c2.8-27.4,5-56.2-8-81.2
									C2555.8,1841.6,2528.4,1823.4,2498,1818.7z"/>
							</g>
						</g>
						<g>
							<g>
								<path class="st35" d="M2474,1825.4c-75.1,39.5-72.5,210.9-45.1,358.1c0.2,1.3,1.3,2.1,2.6,2.1c0.2,0,0.3,0,0.5,0
									c1.4-0.3,2.4-1.6,2.1-3.1c-15.1-80.8-20.7-158.3-16-218.2c5.7-70.8,25.8-117.3,58.3-134.3c1.3-0.7,1.8-2.3,1.1-3.6
									C2476.8,1825.2,2475.2,1824.7,2474,1825.4z"/>
							</g>
						</g>
						<g>
							<g>
								<path class="st35" d="M2494.3,1825.7c-1.1,0.9-1.3,2.6-0.4,3.7c39.8,49.2,26.9,136.1,9.1,256.3
									c-5.6,37.5-11.9,80.1-17,125.2c-0.2,1.4,0.9,2.7,2.3,2.9c0.1,0,0.2,0,0.3,0c1.3,0,2.5-1,2.6-2.3c5.2-45,11.4-87.5,17-125
									c18-121.6,31-209.5-10.2-260.4C2497.1,1824.9,2495.4,1824.7,2494.3,1825.7z"/>
							</g>
						</g>
					</g>
					<g>
						<g>
							<g>
								<path class="st3" d="M2618.2,1986c-17-13.7-42.8-16.7-60.2-3.5c-15.1,11.5-21.2,31.6-25.3,50.6
									c-11.4,51.6-15.3,105-11.7,157.9l79.9,27.9c15.6-34.7,28.1-70.8,37.4-107.9c5.5-21.7,9.8-44.1,7.9-66.4
									C2644.1,2022.3,2635.2,1999.9,2618.2,1986z"/>
							</g>
						</g>
						<g>
							<g>
								<g>
									<path class="st36" d="M2585.6,1978.1c-44.3,15.2-51,142.5-51,217.1c0,1.5,1.2,2.6,2.6,2.6c1.5,0,2.6-1.2,2.6-2.6
										c0-36.1,1.6-88.4,9.2-132.6c8.1-46.9,20.9-73.6,38.1-79.5c1.4-0.5,2.1-2,1.6-3.3C2588.5,1978.4,2587,1977.6,2585.6,1978.1z
										"/>
								</g>
							</g>
							<g>
								<g>
									<path class="st36" d="M2604.8,1982.1c-1.1-1-2.8-0.8-3.7,0.3c-1,1.1-0.8,2.8,0.3,3.7c14,12.2,17.4,44.2,9.7,92.7
										c-6.2,39-19.7,87.8-36.2,130.6c-0.5,1.4,0.2,2.9,1.5,3.4c0.3,0.1,0.6,0.2,0.9,0.2c1.1,0,2.1-0.6,2.5-1.7
										C2608.9,2135.8,2639.6,2012.4,2604.8,1982.1z"/>
								</g>
							</g>
						</g>
					</g>
					<g>
						<g>
							<g>
								<path class="st7" d="M2354.5,1959.8c-7.3-10.6-21.2-14.5-33.8-13.7c-27.8,1.6-53.3,23.6-60,51.6c-4.8,19.7-0.7,40.6,4,60.3
									c11.7,48.8,27.5,96.7,47.3,142.6l84.1-20.6c-9.6-66.5-21-132.8-34.2-198.7C2360.4,1973.7,2358.9,1966,2354.5,1959.8z"/>
							</g>
						</g>
						<g>
							<g>
								<g>
									<path class="st36" d="M2292.2,2059.1c-10-49.5-7.3-83.8,8.2-101.7c0.9-1.1,0.8-2.8-0.3-3.7c-1.1-0.9-2.8-0.8-3.7,0.3
										c-35.2,41-3.5,144.6,32.2,240.5c0.4,1.1,1.4,1.7,2.5,1.7c0.3,0,0.6-0.1,0.9-0.2c1.4-0.5,2.1-2,1.5-3.4
										C2318,2151,2301,2102.7,2292.2,2059.1z"/>
								</g>
							</g>
							<g>
								<g>
									<path class="st36" d="M2361.5,2091.1c-8.9-63.3-18.2-128.8-50.5-143.2c-1.3-0.6-2.9,0-3.5,1.3c-0.6,1.3,0,2.9,1.3,3.5
										c29.6,13.2,38.7,77.2,47.4,139.1c4.9,34.5,9.5,67.1,17.5,91.6c0.4,1.1,1.4,1.8,2.5,1.8c0.3,0,0.5,0,0.8-0.1
										c1.4-0.5,2.1-1.9,1.7-3.3C2370.9,2157.8,2366.4,2125.4,2361.5,2091.1z"/>
								</g>
							</g>
						</g>
					</g>
				</g>
				<g>
					<g>
						<g>
							<path class="st37" d="M2458.2,2363.6c107.2,0.9,162.8-53.2,191.5-107.3c0.1-0.1,0.1-0.1,0.1-0.1
								c28.4-53.6,30.5-107.2,30.5-107.2h-444.2C2236.1,2149,2233.8,2363.6,2458.2,2363.6z"/>
						</g>
					</g>
					<g>
						<g>
							<path class="st38" d="M2494.4,2292.2c73.7,0.6,122.8-14.5,155.4-35.9c0.1-0.1,0.1-0.1,0.1-0.1
								c28.4-53.6,30.5-107.2,30.5-107.2h-407.7C2286,2200.4,2332.7,2292.2,2494.4,2292.2z"/>
						</g>
					</g>
				</g>
			</g>
		</g>
	</g>
	<g>
		<g>
			<g>
				<g>
					
						<ellipse transform="matrix(0.7071 -0.7071 0.7071 0.7071 -700.4581 681.7524)" class="st39" cx="472.7" cy="1186.4" rx="198.5" ry="198.5"/>
				</g>
			</g>
			<g>
				<g>
					<g>
						<polygon class="st12" points="491.2,1228.1 496.5,1077.6 449.2,1077.6 454.2,1228.1 						"/>
						<path class="st12" d="M472.7,1250c-13.2,0-24.8,10.6-24.8,26.8c0,15.2,10.9,26.5,25.1,26.5c14.9,0,24.5-11.2,24.5-26.5
							C497.5,1260.5,486.9,1250,472.7,1250z"/>
					</g>
				</g>
			</g>
		</g>
		<g>
			<g>
				<g>
					<path class="st40" d="M4006.1,376.7h-459.4c-44.8,0-81.2,36.4-81.2,81.2v459.4c0,44.8,36.4,81.2,81.2,81.2h34.1
						c-28.6,78-97,142-97,142c129.7-35.8,190.3-95,218.6-142h303.6c44.8,0,81.2-36.4,81.2-81.2V457.9
						C4087.3,413.1,4051,376.7,4006.1,376.7z"/>
				</g>
			</g>
			<g>
				<g>
					<g>
						<g>
							<path class="st12" d="M3776.5,477.4c-57.8,0-104.7,47-104.7,104.7V670h39v-87.8c0-36.2,29.5-65.7,65.7-65.7
								c36.2,0,65.7,29.5,65.7,65.7V670h39v-87.8C3881.3,524.4,3834.3,477.4,3776.5,477.4z"/>
						</g>
					</g>
				</g>
				<g>
					<g>
						<path class="st41" d="M3895.4,629.9h-238c-2.3,0-4.2,1.7-4.2,3.9v222.5c0,2.2,1.9,3.9,4.2,3.9h238c2.3,0,4.1-1.7,4.1-3.9
							V633.8C3899.6,631.7,3897.7,629.9,3895.4,629.9z"/>
					</g>
				</g>
				<g>
					<g>
						<path class="st42" d="M3809.9,720c0-18.4-14.9-33.4-33.4-33.4c-18.4,0-33.4,14.9-33.4,33.4c0,9.7,4.2,18.5,10.8,24.6l-7.5,60
							h57.3l-5.2-59.5C3805.5,739,3809.9,730,3809.9,720z"/>
					</g>
				</g>
				<g>
					<g>
						<path class="st43" d="M3895.4,629.9h-27.1c0,40.7,0,108.7,0,139.3c0,45.1-54.6,39-54.6,39h-160.4v48c0,2.2,1.9,3.9,4.2,3.9
							h238c2.3,0,4.1-1.7,4.1-3.9V633.8C3899.6,631.7,3897.7,629.9,3895.4,629.9z"/>
					</g>
				</g>
			</g>
		</g>
		<g>
			<g>
				<g>
					<g>
						<circle class="st44" cx="3492.9" cy="2318.9" r="315.5"/>
					</g>
				</g>
				<g>
					<g>
						<path class="st12" d="M3531.5,2086.7c-128.1-21.3-249.6,65.5-270.9,193.6c-20.1,120.9,56.2,236,172.6,266.4
							c6.2,2.4,12.6,4.2,19.2,5.3c5.9,1,11.9,1.4,17.9,1.2c122,11.8,234.4-73,254.8-195.6C3746.4,2229.6,3659.6,2108,3531.5,2086.7z
							 M3537.9,2113.1c33.6,11.5,58.9,46.8,71.8,94.4c-30.3,8.8-60,11.6-88.9,8.3L3537.9,2113.1z M3370.2,2287.8
							c6.7-33.7,17.9-64.6,32-90.8c10.1,7.1,21.5,14.1,34.1,20.4c16.7,8.4,36.6,16,59.2,20.7l-11.4,68.6L3370.2,2287.8z
							 M3480.6,2327.7l-11.4,68.6c-23-2.9-44.2-2.1-62.7,0.4c-14.2,1.9-27.4,4.9-39.4,8.4c-4.7-29.4-5.1-62.3-0.4-96.4
							L3480.6,2327.7z M3501.6,2331.2l110.8,18.4c-6.5,33.6-17.4,64.3-31.3,90.5c-31.3-21.7-62.2-34-91-40.2L3501.6,2331.2z
							 M3505.1,2310.2l11.4-68.7c29.1,3.4,62.2,1.8,98.6-8.4c4.7,29.2,5.3,61.7,0.7,95.6L3505.1,2310.2z M3517,2109.2l-17.2,103.2
							c-17.3-3.8-34.2-9.8-50.8-18c-12.3-6.1-23.4-13-33.2-20C3444.1,2132.7,3480.6,2107.7,3517,2109.2z M3444.8,2110.2
							c-11,8-21.6,17.8-31.7,29.5c-5.5,6.4-10.7,13.2-15.7,20.4c-8.9-7.6-16.1-14.8-21.5-20.6
							C3396.9,2126,3420.2,2116,3444.8,2110.2z M3354.8,2155.4c6.7,7.4,16.3,17.1,28.6,27.3c-16.6,29.7-29.1,64.2-36.4,101.2
							l-63.5-10.6C3294,2225.7,3319.8,2184.9,3354.8,2155.4z M3280.1,2294.3l63.5,10.6c-5.3,37.4-4.8,74.1,1.1,107.7
							c-14.7,5.6-26.7,11.6-35.4,16.4C3285.7,2389.7,3274.5,2342.8,3280.1,2294.3z M3324.2,2450.8c6.8-3.7,15.7-8,26.3-12.2
							c2.5,8.9,5.3,17.5,8.6,25.7c5.2,13,11.3,24.7,18.2,35C3356.9,2486.1,3339,2469.7,3324.2,2450.8z M3447.5,2526.8
							c-35.2-10.4-61.8-46.5-75-95.9c11.7-3.5,24.6-6.5,38.5-8.3c18.4-2.4,36.4-2.6,53.9-0.6L3447.5,2526.8z M3468.5,2529.9
							l17.4-104.4c28.6,6.3,55.9,18.7,81.9,37.1C3540.1,2504.2,3504.4,2529.9,3468.5,2529.9z M3538.2,2528.2
							c10.7-7.9,21.1-17.5,31-29c6-7,11.7-14.5,17.1-22.4c7.9,6.6,15.6,13.8,23.2,21.6C3587.9,2512.5,3563.7,2522.7,3538.2,2528.2z
							 M3630.7,2482.7c-10.2-10.6-20.5-20.1-30.7-28.4c16.3-29.7,28.5-64.1,35.5-100.8l66.6,11.1
							C3691.7,2412.3,3665.8,2453.2,3630.7,2482.7z M3705.6,2343.6l-66.6-11.1c5-37,4.5-73.4-1.4-106.7
							c12.6-4.6,25.5-10.3,38.8-17.1C3700,2248,3711.3,2295.1,3705.6,2343.6z M3631.7,2200.1c-2.4-8.8-5.3-17.2-8.5-25.4
							c-6.2-15.3-13.6-28.9-22-40.5c23.4,13.8,43.8,31.7,60.2,52.7C3651.4,2191.9,3641.5,2196.3,3631.7,2200.1z"/>
					</g>
				</g>
			</g>
			<g>
				<g>
					<g>
						
							<ellipse transform="matrix(0.7071 -0.7071 0.7071 0.7071 -415.1631 3260.6177)" class="st45" cx="3728.3" cy="2131.5" rx="132.8" ry="132.8"/>
					</g>
				</g>
				<g>
					<g>
						<g>
							<polygon class="st12" points="3766.4,2092.3 3735.7,2114.6 3720.4,2079.6 3683.4,2069.5 3710.4,2129.7 3654.4,2168.3 
								3691.9,2178.5 3724,2154.3 3739.6,2191.6 3777.4,2202 3748.4,2138.8 3801.9,2102 							"/>
						</g>
					</g>
				</g>
			</g>
		</g>
		<g>
			<g>
				<g>
					<g>
						<path class="st46" d="M1880.2,2772.9L1654,2625.1l221.3-147.5c11.3-7.6,14.4-22.9,6.8-34.2c-7.6-11.3-22.9-14.4-34.2-6.9
							l-252.4,168.2c-6.9,4.6-11,12.3-11,20.6c0,8.3,4.2,16,11.2,20.5l257.5,168.2c4.2,2.7,8.8,4,13.5,4c8.1,0,15.9-3.9,20.7-11.2
							C1894.8,2795.6,1891.6,2780.3,1880.2,2772.9z"/>
					</g>
				</g>
			</g>
			<g>
				<g>
					<path class="st47" d="M1609.2,2555.4c-43,0-77.9,34.9-77.9,77.9c0,43,34.9,77.9,77.9,77.9c43,0,77.9-34.9,77.9-77.9
						C1687.1,2590.3,1652.3,2555.4,1609.2,2555.4z"/>
				</g>
			</g>
			<g>
				<g>
					<g>
						<path class="st48" d="M1658.2,2572.7c2.1,8.1,3.3,16.6,3.3,25.2c0,52.8-42.2,97.2-94.1,100.9c12.1,7.8,26.5,12.3,41.9,12.3
							c43,0,77.9-34.9,77.9-77.9C1687.1,2608.8,1675.8,2587,1658.2,2572.7z"/>
					</g>
				</g>
			</g>
			<g>
				<g>
					<path class="st47" d="M1866.7,2387.2c-43,0-77.9,34.9-77.9,77.9c0,43,34.9,77.9,77.9,77.9c43,0,77.9-34.9,77.9-77.9
						C1944.6,2422.1,1909.7,2387.2,1866.7,2387.2z"/>
				</g>
			</g>
			<g>
				<g>
					<g>
						<path class="st48" d="M1915.6,2404.5c2.1,8.1,3.3,16.6,3.3,25.3c0,52.8-42.2,97.2-94.1,100.9c12.1,7.8,26.5,12.3,41.9,12.3
							c43,0,77.9-34.9,77.9-77.9C1944.6,2440.6,1933.3,2418.8,1915.6,2404.5z"/>
					</g>
				</g>
			</g>
			<g>
				<g>
					<path class="st47" d="M1866.7,2723.6c-43,0-77.9,34.9-77.9,77.9c0,43,34.9,77.9,77.9,77.9c43,0,77.9-34.9,77.9-77.9
						C1944.6,2758.5,1909.7,2723.6,1866.7,2723.6z"/>
				</g>
			</g>
			<g>
				<g>
					<g>
						<path class="st48" d="M1915.6,2740.9c2.1,8.1,3.3,16.6,3.3,25.2c0,52.8-42.2,97.2-94.1,100.9c12.1,7.7,26.5,12.3,41.9,12.3
							c43,0,77.9-34.9,77.9-77.9C1944.6,2777,1933.3,2755.2,1915.6,2740.9z"/>
					</g>
				</g>
			</g>
		</g>
	</g>
</g>
</svg>
