<?xml version="1.0" encoding="utf-8"?>
<!-- Generator: Adobe Illustrator 27.0.0, SVG Export Plug-In . SVG Version: 6.00 Build 0)  -->
<svg version="1.1" id="Layer_1" xmlns="http://www.w3.org/2000/svg" xmlns:xlink="http://www.w3.org/1999/xlink" x="0px" y="0px"
	 viewBox="0 0 1000 750" style="enable-background:new 0 0 1000 750;" xml:space="preserve">
<style type="text/css">
	.st0{fill:#D6D7D8;}
	.st1{fill:#EEEEEE;}
	.st2{fill:url(#SVGID_1_);}
	.st3{fill:#E94A47;}
	.st4{fill:#FFFFFF;}
	.st5{fill:url(#SVGID_00000164498459805922766120000017350264773281925008_);}
	.st6{fill:#428DFC;}
	.st7{fill:#81AEF2;}
	.st8{fill:#A1C3FC;}
	.st9{opacity:0.86;fill:#FFFFFF;enable-background:new    ;}
	.st10{fill:url(#SVGID_00000075843840243311484500000001048996898607624091_);}
	.st11{fill:url(#SVGID_00000170279383136897328090000001952293907907453334_);}
	.st12{fill:#23286B;}
	.st13{fill:url(#SVGID_00000164491844937896520700000012066603110623201153_);}
	.st14{fill:#FFBEB6;}
	.st15{fill:#1C2868;}
	.st16{fill:url(#SVGID_00000086659512767826846830000008135253120803357112_);}
	.st17{fill:url(#SVGID_00000173846713155283273880000012698506612164967824_);}
	.st18{fill:url(#SVGID_00000046334169513897732050000006865005920945850540_);}
	.st19{fill:url(#SVGID_00000116941022704768394300000010632549189404752028_);}
	.st20{fill:url(#SVGID_00000021091670514104013040000017880390948824262321_);}
	.st21{fill:url(#SVGID_00000034081692505053927070000006531242292862456727_);}
</style>
<g>
	<g transform="translate(885.0 226.875) rotate(0.0 524.0625 858.75)  scale(3.0831195801809645 3.078398336679094)">
		<path class="st0" d="M-213-70.5h144.5v237.1H-213V-70.5z"/>
		<path class="st1" d="M-203.9-62h126.8v228.7h-126.8V-62z"/>
		
			<linearGradient id="SVGID_1_" gradientUnits="userSpaceOnUse" x1="1472.7235" y1="-2157.5073" x2="1491.9523" y2="-2157.5073" gradientTransform="matrix(0 3.0831 3.0784 0 6549.4458 -4485.7681)">
			<stop  offset="0" style="stop-color:#23286B"/>
			<stop  offset="0.432" style="stop-color:#1D225F"/>
			<stop  offset="1" style="stop-color:#151A4F"/>
		</linearGradient>
		<path class="st2" d="M-92.1,74h-0.3c-1.8,0-3.3-1.5-3.3-3.3V58.1c0-1.8,1.5-3.3,3.3-3.3h0.3c1.8,0,3.3,1.5,3.3,3.3v12.7
			C-88.8,72.6-90.2,74-92.1,74L-92.1,74z M-92.4,56.1c-1.1,0-2,0.9-2,2v0v12.7c0,1.1,0.9,2,2,2h0h0.3c1.1,0,2-0.9,2-2v0V58.1
			c0-1.1-0.9-2-2-2h0L-92.4,56.1z"/>
	</g>
	<g transform="translate(1201.875 519.375) rotate(0.0 206.25 206.25)  scale(3.0880602489912334 3.0880602489912334)">
		<circle class="st3" cx="-243.3" cy="-96.3" r="28.4"/>
		<circle class="st4" cx="-243.3" cy="-96.3" r="23.4"/>
		<path class="st3" d="M-223.1-112.2l-35.5,35.5l-4-4l35.5-35.5L-223.1-112.2z"/>
	</g>
	<g transform="translate(1695.0 450.0) rotate(0.0 442.5 747.1875)  scale(3.0318706127804482 3.0406292156778965)">
		
			<linearGradient id="SVGID_00000108302383887034158160000008146432486389205404_" gradientUnits="userSpaceOnUse" x1="-727.0062" y1="153.6794" x2="-684.2225" y2="153.6794" gradientTransform="matrix(3.0319 0 0 -3.0406 1862.5424 551.6703)">
			<stop  offset="0.129" style="stop-color:#428DFC"/>
			<stop  offset="0.999" style="stop-color:#1D72D8"/>
		</linearGradient>
		<path style="fill:url(#SVGID_00000108302383887034158160000008146432486389205404_);" d="M-304.9,78.5l6.1,16.9h-42.8
			c0,0,2.2-4.2,9.5-7.4c7.4-3.1,14.1-9.5,14.1-9.5l6.6-5.1L-304.9,78.5"/>
		<path class="st6" d="M-255.8,78.5l6.1,16.9h-42.8c0,0,2.2-4.2,9.5-7.4c7.4-3.1,14.1-9.5,14.1-9.5l8-3.3L-255.8,78.5"/>
		<path class="st7" d="M-284.4-5.3c-3.9,9.8-10.9,17.7-9.3,27.7s4.3,14,2,20.9c-1,3-2.2,8.2-0.1,17.8c1.9,9.1-4.6,17.4-4.6,17.4
			H-318c0,0-2-28.4-1.4-45.5c0.6-17.1,1.2-21.3,3.3-30.2c1.7-7.1,8.8-34.4,8.8-34.4l3.7-0.3c9.3,2.6,18.2,1.9,24.9,0.5
			C-278-25.4-281.1-13.7-284.4-5.3L-284.4-5.3z"/>
		<path class="st8" d="M-246.4,78.5h-22.9c0,0-22.4-34.7-28.6-46s-6.8-36.7-8-47.8c-0.7-6.3-1.9-11.3-1.9-17.5
			c11.5,3.5,23-3.4,30.1-5.3c3.6,3.3,4.6,12.9,2.4,25.3c-1.8,10.7-2.6,23.3-0.7,28.3c2.5,6.4,10.4,11.8,12.5,19.9
			c2.1,8.2,0.2,10.2,2.9,15.3C-257.4,56.8-244.2,68.6-246.4,78.5L-246.4,78.5z"/>
		<path class="st9" d="M-286.3-27.4c-0.1,0-0.1,0-0.2,0c0,0.1,0,0.1,0.1,0.1c0.1,0,0.1,0,0.2,0C-286.2-27.4-286.2-27.4-286.3-27.4z
			 M-288.7-28.3c-0.1,0-0.1,0-0.2,0c0,0.1,0,0.1,0.1,0.1c0.1,0,0.1,0,0.2,0C-288.7-28.2-288.7-28.3-288.7-28.3L-288.7-28.3z
			 M-294.1-20.6c0,0-0.1-0.1-0.2,0c-0.1,0-0.1,0.1-0.1,0.1c0,0,0.1,0.1,0.2,0C-294.1-20.5-294.1-20.5-294.1-20.6z M-295.1-22.7
			C-295.1-22.7-295.1-22.7-295.1-22.7c-0.1-0.1-0.1-0.1-0.1,0c-0.1,0-0.1,0.1-0.1,0.1s0.1,0.1,0.2,0
			C-295.1-22.5-295.1-22.6-295.1-22.7z M-296.1-24.8c0,0-0.1-0.1-0.2,0c-0.1,0-0.1,0.1-0.1,0.1c0,0,0.1,0.1,0.2,0
			C-296.1-24.7-296.1-24.7-296.1-24.8L-296.1-24.8z M-297.1-26.9c0,0-0.1-0.1-0.2,0c-0.1,0-0.1,0.1-0.1,0.1c0,0,0.1,0.1,0.2,0
			C-297.1-26.8-297.1-26.9-297.1-26.9L-297.1-26.9z M-290.3-24.2c0,0-0.1,0-0.2,0c0,0,0,0,0,0c0,0-0.1,0.1,0,0.1c0,0,0,0,0,0
			c0,0,0.1,0,0.2,0c0,0,0,0,0,0C-290.3-24.1-290.3-24.2-290.3-24.2z M-292.2-25.9c0,0-0.1,0-0.2,0c0,0,0,0,0,0l-0.1,0
			c0,0,0,0,0.1,0.1h0.1C-292.2-25.8-292.2-25.9-292.2-25.9z M-294.1-27.5c0,0-0.1,0-0.2,0c0,0,0,0,0,0c0,0-0.1,0.1,0,0.1
			c0,0,0,0,0,0c0,0,0.1,0,0.2,0c0,0,0,0,0,0C-294.1-27.4-294.1-27.5-294.1-27.5z M-299.8-20.8c-0.1,0-0.1,0.1-0.1,0.1
			c0,0.1,0.1,0.1,0.1,0.1c0,0,0.1,0,0.1-0.1C-299.6-20.8-299.6-20.8-299.8-20.8z M-299.8-23.1c-0.1,0-0.1,0-0.1,0.1
			c0,0.1,0,0.1,0.1,0.1c0,0,0,0,0,0c0.1,0,0.1,0,0.1-0.1C-299.7-23.1-299.7-23.1-299.8-23.1L-299.8-23.1z M-283.5-22.9
			c-0.1,0-0.2,0-0.3,0c-0.1,0.1-0.1,0.2,0,0.3c0.1,0,0.2,0,0.3,0C-283.4-22.8-283.4-22.9-283.5-22.9L-283.5-22.9z M-287.3-25.8
			c-0.1,0-0.2,0-0.3,0c-0.1,0.1-0.1,0.2,0,0.3c0.1,0,0.2,0,0.3,0C-287.2-25.6-287.2-25.7-287.3-25.8z M-295-9.1
			c-0.1,0-0.2,0.1-0.2,0.2c0,0.1,0.1,0.2,0.2,0.2c0,0,0,0,0.1,0c0.1,0,0.2-0.1,0.2-0.2C-294.8-9.1-294.9-9.1-295-9.1z M-295.4-13.5
			c-0.1,0-0.2,0.1-0.2,0.2c0,0.1,0.1,0.2,0.2,0.2c0.1,0,0.2-0.1,0.2-0.2C-295.2-13.4-295.2-13.5-295.4-13.5z M-295.7-17.8
			c-0.1,0-0.2,0.1-0.2,0.2c0,0.1,0.1,0.2,0.2,0.2c0,0,0,0,0.1,0c0.1,0,0.2-0.1,0.2-0.2C-295.5-17.7-295.6-17.8-295.7-17.8z
			 M-296.1-22.1c-0.1,0-0.2,0.1-0.2,0.2c0,0.1,0.1,0.2,0.2,0.2c0.1,0,0.2-0.1,0.2-0.2C-295.9-22.1-296-22.1-296.1-22.1z
			 M-296.4-26.5c-0.1,0-0.2,0.1-0.2,0.2s0.1,0.2,0.2,0.2c0.1,0,0.2-0.1,0.2-0.2C-296.2-26.4-296.3-26.5-296.4-26.5z M-277.5-27.6
			c-0.1,0-0.2,0-0.3,0.1c-0.1,0.1,0,0.2,0.1,0.2c0.1,0,0.2,0,0.3-0.1C-277.4-27.4-277.4-27.5-277.5-27.6
			C-277.5-27.5-277.5-27.6-277.5-27.6L-277.5-27.6z M-282.3-28.9c-0.1,0-0.2,0-0.3,0.1c-0.1,0.1,0,0.2,0.1,0.2c0.1,0,0.2,0,0.3-0.1
			C-282.1-28.8-282.2-28.9-282.3-28.9L-282.3-28.9z M-285.2-13.5c-0.1-0.1-0.2-0.1-0.3-0.1c-0.1,0-0.2,0.1-0.1,0.2
			c0.1,0.1,0.2,0.1,0.3,0.1C-285.1-13.3-285.1-13.4-285.2-13.5L-285.2-13.5z M-287.4-17.3c-0.1-0.1-0.2-0.1-0.3-0.1
			c-0.1,0-0.2,0.1-0.1,0.2c0.1,0.1,0.2,0.1,0.3,0.1C-287.4-17.1-287.3-17.2-287.4-17.3L-287.4-17.3z M-289.6-21.2
			c-0.1-0.1-0.2-0.1-0.3-0.1c-0.1,0-0.2,0.1-0.1,0.2c0.1,0.1,0.2,0.1,0.3,0.1C-289.7-21-289.6-21.1-289.6-21.2
			C-289.6-21.2-289.6-21.2-289.6-21.2L-289.6-21.2z M-291.9-25.1c-0.1-0.1-0.2-0.1-0.3-0.1c-0.1,0-0.2,0.1-0.1,0.2
			c0.1,0.1,0.2,0.1,0.3,0.1C-291.9-24.9-291.8-25-291.9-25.1z M-302.8-16.4c-0.1,0-0.2,0-0.3,0.1c-0.1,0.1,0,0.2,0.1,0.2
			c0.1,0,0.2,0,0.3-0.1C-302.7-16.2-302.7-16.3-302.8-16.4z M-301.2-20.5c-0.1,0-0.2,0-0.3,0.1c-0.1,0.1,0,0.2,0.1,0.2
			c0.1,0,0.2,0,0.3-0.1C-301.1-20.4-301.1-20.5-301.2-20.5z M-299.7-24.6c-0.1,0-0.2,0-0.3,0.1s0,0.2,0.1,0.2c0.1,0,0.2,0,0.3-0.1
			C-299.5-24.4-299.5-24.5-299.7-24.6C-299.6-24.6-299.6-24.6-299.7-24.6L-299.7-24.6z M-283.2-18.7c-0.1-0.1-0.2-0.1-0.3,0
			c-0.1,0-0.1,0.1-0.1,0.2s0.2,0.1,0.3,0C-283.2-18.6-283.1-18.7-283.2-18.7L-283.2-18.7z M-285.6-22
			C-285.6-22.1-285.6-22.1-285.6-22l-0.2,0c-0.1,0-0.1,0.1-0.1,0.2c0.1,0.1,0.2,0.1,0.3,0c0.1,0,0.1,0,0.1-0.1
			C-285.5-21.9-285.5-22-285.6-22L-285.6-22z M-288-25.3c-0.1-0.1-0.2-0.1-0.3,0s-0.1,0.1-0.1,0.2s0.2,0.1,0.3,0
			C-287.9-25.1-287.9-25.3-288-25.3z M-299.5-12.8c-0.1,0-0.2,0-0.2,0.1c0,0.1,0.1,0.2,0.1,0.2c0.1,0,0.2,0,0.2-0.1
			C-299.4-12.7-299.5-12.8-299.5-12.8z M-298.5-16.6c-0.1,0-0.2,0-0.2,0.1c0,0.1,0.1,0.2,0.1,0.2c0.1,0,0.2,0,0.2-0.1
			C-298.4-16.5-298.5-16.6-298.5-16.6L-298.5-16.6z M-297.5-20.4c-0.1,0-0.2,0-0.2,0.1c0,0.1,0,0.1,0,0.2c0,0,0.1,0,0.1,0
			c0.1,0,0.2,0,0.2-0.1C-297.4-20.3-297.5-20.4-297.5-20.4L-297.5-20.4z M-296.6-24.1c-0.1,0-0.2,0-0.2,0.1c0,0.1,0.1,0.2,0.1,0.2
			c0,0,0,0,0,0c0.1,0,0.2,0,0.2-0.1C-296.4-24.1-296.5-24.1-296.6-24.1C-296.6-24.1-296.6-24.1-296.6-24.1L-296.6-24.1z
			 M-295.5-27.9c-0.1,0-0.2,0-0.2,0.1c0,0.1,0.1,0.2,0.1,0.2c0,0,0,0,0,0c0.1,0,0.2,0,0.2-0.1C-295.4-27.8-295.4-27.9-295.5-27.9
			C-295.5-27.9-295.5-27.9-295.5-27.9z M-279-24.7c-0.1,0-0.2,0-0.3,0c-0.1,0.1,0,0.2,0,0.2c0,0,0,0,0,0c0.1,0.1,0.2,0,0.3,0
			C-278.9-24.6-279-24.7-279-24.7L-279-24.7z M-282.7-27c-0.1,0-0.2,0-0.3,0c-0.1,0.1-0.1,0.2,0.1,0.2s0.2,0,0.3,0
			C-282.6-26.8-282.6-26.9-282.7-27z M-290-14.5c-0.1,0-0.2,0.1-0.2,0.2c0,0,0,0,0,0c0,0.1,0.1,0.1,0.2,0.1c0.1,0,0.2-0.1,0.2-0.2
			c0,0,0,0,0,0C-289.8-14.5-289.9-14.6-290-14.5L-290-14.5z M-290.8-18.3c-0.1,0-0.2,0.1-0.2,0.2c0,0,0,0,0,0c0,0.1,0.1,0.1,0.2,0.1
			c0.1,0,0.2-0.1,0.2-0.2c0,0,0,0,0,0C-290.5-18.3-290.6-18.4-290.8-18.3C-290.7-18.3-290.7-18.3-290.8-18.3L-290.8-18.3z
			 M-291.5-22.2c-0.1,0-0.2,0.1-0.2,0.2c0,0,0,0,0,0c0,0.1,0.1,0.1,0.2,0.1c0.1,0,0.2-0.1,0.2-0.2c0,0,0,0,0,0
			C-291.3-22.1-291.4-22.2-291.5-22.2C-291.5-22.2-291.5-22.2-291.5-22.2L-291.5-22.2z M-292.2-26c-0.1,0-0.2,0.1-0.2,0.2
			c0,0,0,0,0,0c0,0,0,0,0.1,0.1c0,0,0.1,0.1,0.2,0c0.1,0,0.2-0.1,0.2-0.2c0,0,0,0,0,0C-292-25.9-292.1-26-292.2-26
			C-292.2-26-292.2-26-292.2-26L-292.2-26z M-304-20.9c-0.1,0-0.2,0-0.3,0c-0.1,0.1-0.1,0.2,0.1,0.2c0.1,0,0.2,0,0.3,0
			C-303.9-20.7-303.9-20.8-304-20.9z M-281.2-25c0,0-0.1,0-0.2,0c0,0,0,0,0,0c0,0-0.1,0.1,0,0.1c0,0,0,0,0,0c0,0,0.1,0,0.2,0
			c0,0,0,0,0,0C-281.1-24.9-281.1-24.9-281.2-25C-281.1-25-281.1-25-281.2-25z M-283-26.6c0,0-0.1,0-0.2,0c0,0,0,0,0,0
			c0,0-0.1,0.1,0,0.1c0,0,0,0,0,0c0,0,0.1,0,0.2,0c0,0,0,0,0,0C-282.9-26.5-282.9-26.6-283-26.6C-282.9-26.6-283-26.6-283-26.6z
			 M-284.8-28.3c0,0-0.1,0-0.2,0c0,0,0,0,0,0c0,0-0.1,0.1,0,0.1c0,0,0,0,0,0c0,0,0.1,0,0.2,0c0,0,0,0,0,0
			C-284.7-28.2-284.7-28.2-284.8-28.3C-284.8-28.3-284.8-28.3-284.8-28.3z M-291.7-21.6c-0.1,0-0.1,0.1-0.1,0.1
			c0,0.1,0.1,0.1,0.1,0.1c0,0,0.1,0,0.1-0.1C-291.6-21.6-291.6-21.6-291.7-21.6z M-291.6-23.9c-0.1,0-0.1,0-0.1,0.1
			c0,0.1,0.1,0.1,0.1,0.1c0.1,0,0.1,0,0.1-0.1C-291.5-23.9-291.5-23.9-291.6-23.9C-291.6-23.9-291.6-23.9-291.6-23.9z M-291.5-26.2
			c-0.1,0-0.1,0-0.1,0.1c0,0.1,0,0.1,0.1,0.1c0.1,0,0.1,0,0.1-0.1S-291.4-26.2-291.5-26.2C-291.5-26.2-291.5-26.2-291.5-26.2z
			 M-279.1-29.6c-0.1,0-0.1,0-0.2,0c0,0.1,0,0.1,0.1,0.1c0.1,0,0.1,0,0.2,0C-279-29.5-279-29.6-279.1-29.6z M-286.4-23.5
			C-286.4-23.6-286.4-23.6-286.4-23.5c-0.1-0.1-0.1-0.1-0.1,0c-0.1,0-0.1,0-0.1,0.1c0,0,0.1,0.1,0.2,0
			C-286.4-23.5-286.3-23.5-286.4-23.5z M-287.3-25.7c0,0-0.1-0.1-0.2,0c-0.1,0-0.1,0.1-0.1,0.1c0,0,0.1,0.1,0.2,0
			C-287.3-25.6-287.3-25.6-287.3-25.7L-287.3-25.7z M-288.2-27.8c0,0-0.1-0.1-0.2,0c-0.1,0-0.1,0.1-0.1,0.1c0,0,0,0.1,0.1,0.1
			c0,0,0,0,0,0C-288.2-27.7-288.2-27.8-288.2-27.8z M-296.6-23.8c-0.1,0-0.1,0-0.2,0c0,0.1,0,0.1,0.1,0.1c0.1,0,0.1,0,0.2,0
			C-296.5-23.7-296.5-23.8-296.6-23.8L-296.6-23.8z M-295.4-25.9c-0.1,0-0.1,0-0.2,0c0,0.1,0,0.1,0.1,0.1c0.1,0,0.1,0,0.2,0
			C-295.4-25.8-295.4-25.9-295.4-25.9z M-294.4-28c-0.1,0-0.1,0-0.2,0c0,0.1,0,0.1,0.1,0.1c0.1,0,0.1,0,0.2,0
			C-294.3-27.9-294.3-28-294.4-28L-294.4-28z M-279.2-22.7c0,0-0.1-0.1-0.2,0c0,0-0.1,0.1-0.1,0.1c0,0,0.1,0.1,0.2,0
			C-279.2-22.6-279.2-22.7-279.2-22.7L-279.2-22.7z M-280.9-24.9c0,0-0.1-0.1-0.2,0c0,0-0.1,0.1-0.1,0.1c0,0,0.1,0.1,0.2,0
			C-280.8-24.8-280.8-24.8-280.9-24.9L-280.9-24.9z M-282.5-27.1c0,0-0.1-0.1-0.2,0c-0.1,0-0.1,0.1-0.1,0.1
			C-282.7-27-282.6-27-282.5-27.1C-282.6-27-282.5-27-282.5-27.1C-282.5-27-282.4-27.1-282.5-27.1L-282.5-27.1z M-291.8-20.8
			c-0.1,0-0.1,0-0.2,0.1c0,0,0,0.1,0.1,0.1c0.1,0,0.1,0,0.2,0C-291.7-20.7-291.8-20.8-291.8-20.8L-291.8-20.8z M-291.2-23.4
			c-0.1,0-0.1,0-0.2,0.1c0,0,0,0.1,0.1,0.1c0.1,0,0.2,0,0.2-0.1C-291.1-23.3-291.1-23.4-291.2-23.4z M-290.5-25.9
			c-0.1,0-0.1,0-0.2,0.1c0,0,0,0.1,0.1,0.1c0.1,0,0.1,0,0.2-0.1C-290.4-25.9-290.5-25.9-290.5-25.9z M-289.9-28.5
			c-0.1,0-0.2,0-0.2,0.1c0,0,0,0.1,0.1,0.1c0.1,0,0.1,0,0.2-0.1C-289.8-28.4-289.9-28.5-289.9-28.5z M-278.3-29c-0.1,0-0.2,0-0.2,0
			c-0.1,0,0,0.1,0.1,0.1c0.1,0,0.1,0,0.2,0C-278.3-28.9-278.3-29-278.3-29L-278.3-29z M-285.5-22c0,0-0.1-0.1-0.2-0.1
			c-0.1,0-0.1,0-0.1,0.1c0,0,0.1,0.1,0.2,0.1h0.1C-285.5-21.9-285.5-21.9-285.5-22L-285.5-22z M-286.2-24.7c-0.1,0-0.1,0.1-0.1,0.1
			s0.1,0.1,0.2,0.1s0.1,0,0.1-0.1C-286-24.6-286.1-24.6-286.2-24.7z M-286.7-27.2c-0.1,0-0.1,0-0.1,0.1c0,0,0.1,0.1,0.2,0.1
			c0.1,0,0.1,0,0.1-0.1C-286.6-27.2-286.6-27.2-286.7-27.2z M-296.9-24.1c-0.1,0-0.1,0-0.2,0c-0.1,0,0,0.1,0.1,0.1c0,0,0.1,0,0.2,0
			c0,0,0,0,0,0C-296.8-24-296.8-24.1-296.9-24.1z M-295.1-26.3c-0.1,0-0.2,0-0.2,0c-0.1,0,0,0.1,0.1,0.1c0,0,0.1,0,0.2,0
			c0,0,0,0,0,0C-295.1-26.2-295.1-26.2-295.1-26.3L-295.1-26.3z M-281.1-11.2c-0.1,0-0.2,0.1-0.2,0.2c0,0,0,0.1,0,0.1
			c0,0.1,0.1,0.2,0.3,0.1c0.1,0,0.2-0.1,0.2-0.2c0,0,0-0.1,0-0.1C-280.8-11.2-280.9-11.2-281.1-11.2L-281.1-11.2z M-281.9-15.7
			c-0.1,0-0.2,0.1-0.2,0.2c0,0,0,0.1,0,0.1c0,0.1,0.1,0.2,0.3,0.1c0.1,0,0.2-0.1,0.2-0.2c0,0,0-0.1,0-0.1
			C-281.6-15.6-281.7-15.7-281.9-15.7L-281.9-15.7z M-282.7-20.1c-0.1,0-0.2,0.1-0.2,0.2c0.1,0.1,0.1,0.2,0.2,0.1
			c0.1,0,0.2-0.1,0.2-0.2c0,0,0-0.1,0-0.1C-282.5-20.1-282.6-20.1-282.7-20.1C-282.6-20.1-282.6-20.1-282.7-20.1L-282.7-20.1z
			 M-283.5-24.5c-0.1,0-0.2,0.1-0.2,0.2c0,0,0,0.1,0,0.1c0,0.1,0.1,0.2,0.3,0.1c0.1,0,0.2-0.1,0.2-0.2c0,0,0-0.1,0-0.1
			C-283.2-24.5-283.3-24.6-283.5-24.5z M-284.2-28.9c-0.1,0-0.2,0.1-0.2,0.2c0,0,0,0.1,0,0.1c0,0.1,0.1,0.2,0.2,0.1c0,0,0,0,0,0
			c0.1,0,0.2-0.1,0.2-0.2c0,0,0-0.1,0-0.1C-284-28.9-284.1-29-284.2-28.9C-284.2-28.9-284.2-28.9-284.2-28.9z M-302.1-15.6
			c-0.1-0.1-0.2,0-0.3,0c-0.1,0.1,0,0.2,0.1,0.3c0,0,0,0,0,0c0.1,0.1,0.2,0,0.3,0C-301.9-15.5-302-15.6-302.1-15.6L-302.1-15.6z
			 M-299-19.3c-0.1-0.1-0.2,0-0.3,0c-0.1,0.1,0,0.2,0,0.3c0,0,0,0,0,0c0.1,0.1,0.2,0,0.3,0C-298.9-19.1-298.9-19.2-299-19.3
			L-299-19.3z M-296-22.9c-0.1-0.1-0.2,0-0.3,0c-0.1,0.1,0,0.2,0.1,0.3c0,0,0,0,0,0c0.1,0.1,0.2,0,0.3,0
			C-295.9-22.7-295.9-22.8-296-22.9C-296-22.9-296-22.9-296-22.9z M-292.9-26.5c-0.1-0.1-0.2,0-0.3,0c-0.1,0.1,0,0.2,0,0.3
			c0,0,0,0,0,0c0.1,0.1,0.2,0,0.3,0C-292.8-26.3-292.8-26.4-292.9-26.5C-292.9-26.5-292.9-26.5-292.9-26.5L-292.9-26.5z M-276.8-24
			c-0.1-0.1-0.2-0.1-0.3-0.1c0,0,0,0,0,0c-0.1,0-0.1,0.1-0.1,0.2c0,0,0,0.1,0,0.1c0.1,0.1,0.2,0.1,0.3,0.1c0,0,0,0,0,0
			C-276.8-23.7-276.8-23.9-276.8-24C-276.8-24-276.8-24-276.8-24L-276.8-24z M-279.6-27.8c-0.1-0.1-0.2-0.1-0.3-0.1c0,0,0,0,0,0
			c-0.1,0.1-0.1,0.2-0.1,0.3c0,0,0,0,0,0c0.1,0.1,0.2,0.1,0.3,0C-279.5-27.6-279.5-27.7-279.6-27.8
			C-279.6-27.8-279.6-27.8-279.6-27.8L-279.6-27.8z M-291.1-13.6c-0.1,0-0.2,0-0.3,0.1c-0.1,0.1,0.1,0.2,0.2,0.2
			c0.1,0,0.2,0,0.3-0.1C-291-13.5-291-13.6-291.1-13.6z M-289.9-18c-0.1,0-0.2,0-0.3,0.1c-0.1,0.1,0.1,0.2,0.2,0.2
			c0.1,0,0.2,0,0.3-0.1C-289.7-17.8-289.8-17.9-289.9-18z M-288.7-22.3c-0.1,0-0.2,0-0.3,0.1c0,0.1,0.1,0.2,0.2,0.2
			c0.1,0,0.2,0,0.3-0.1C-288.5-22.2-288.6-22.3-288.7-22.3z M-287.5-26.7c-0.1,0-0.2,0-0.3,0.1c0,0.1,0.1,0.2,0.2,0.2
			c0.1,0,0.2,0,0.3-0.1C-287.3-26.5-287.4-26.6-287.5-26.7L-287.5-26.7z M-288-12.2c-0.1,0-0.2,0-0.3,0.1c-0.1,0.1,0.1,0.2,0.2,0.2
			c0.1,0,0.2,0,0.3-0.1C-287.8-12-287.9-12.2-288-12.2L-288-12.2z M-287-16.5c-0.1,0-0.2,0-0.3,0.1c0,0.1,0.1,0.2,0.2,0.2
			c0.1,0,0.2,0,0.3-0.1C-286.8-16.4-286.8-16.5-287-16.5C-287-16.5-287-16.5-287-16.5L-287-16.5z M-286-20.9c-0.1,0-0.2,0-0.3,0.1
			c-0.1,0.1,0.1,0.2,0.2,0.2c0.1,0,0.2,0,0.3-0.1C-285.8-20.8-285.9-20.9-286-20.9L-286-20.9z M-285-25.3c-0.1,0-0.2,0-0.3,0.1
			c0,0.1,0.1,0.2,0.2,0.2c0.1,0,0.2,0,0.3-0.1C-284.8-25.2-284.9-25.3-285-25.3z M-297.4-27.5c-0.1-0.1-0.2-0.1-0.3,0
			c-0.1,0-0.1,0.1-0.1,0.2c0,0,0,0,0,0c0.1,0.1,0.2,0.1,0.3,0C-297.4-27.3-297.3-27.4-297.4-27.5z M-279.4-23.3
			c-0.1,0-0.2,0.1-0.2,0.2c0,0.1,0.2,0.2,0.3,0.1c0.1,0,0.2-0.1,0.2-0.2C-279.1-23.3-279.2-23.4-279.4-23.3z M-280.4-27.7
			c-0.1,0-0.2,0.1-0.2,0.2s0.2,0.2,0.3,0.1c0.1,0,0.2-0.1,0.2-0.2C-280.1-27.7-280.3-27.7-280.4-27.7L-280.4-27.7z M-296.6-17.7
			c-0.1,0-0.2,0-0.3,0c-0.1,0.1,0,0.2,0,0.3c0,0,0,0,0,0c0.1,0.1,0.2,0,0.3,0C-296.5-17.6-296.5-17.7-296.6-17.7L-296.6-17.7z
			 M-293.7-21.4c-0.1,0-0.2,0-0.3,0c-0.1,0.1,0,0.2,0,0.3c0,0,0,0,0,0c0.1,0.1,0.2,0,0.3,0C-293.6-21.2-293.6-21.4-293.7-21.4
			L-293.7-21.4z M-290.9-25.2c-0.1-0.1-0.2,0-0.3,0c-0.1,0.1,0,0.2,0,0.3c0,0,0,0,0,0c0.1,0.1,0.2,0,0.3,0
			C-290.7-25-290.8-25.1-290.9-25.2C-290.8-25.2-290.9-25.2-290.9-25.2L-290.9-25.2z M-288-19.8c-0.1,0-0.2,0-0.2,0
			c-0.1,0.1,0,0.1,0.1,0.2s0.2,0,0.2-0.1C-287.9-19.7-287.9-19.8-288-19.8L-288-19.8z M-286.5-22.9c-0.1,0-0.2,0-0.2,0
			c-0.1,0.1,0,0.1,0.1,0.2c0.1,0,0.2,0,0.2-0.1C-286.4-22.8-286.4-22.9-286.5-22.9L-286.5-22.9z M-284.9-26c-0.1,0-0.2,0-0.2,0.1
			c-0.1,0.1,0,0.1,0.1,0.2c0.1,0,0.2,0,0.2-0.1C-284.9-25.9-284.9-26-284.9-26L-284.9-26z M-283.5-29.1c-0.1,0-0.2,0-0.2,0.1
			c-0.1,0.1,0,0.1,0.1,0.2c0.1,0,0.2,0,0.2,0C-283.3-29-283.3-29.1-283.5-29.1L-283.5-29.1z M-279.8-23.5c-0.1,0-0.2,0-0.2,0.1
			c0,0.1,0.1,0.1,0.2,0.1c0.1,0,0.2,0,0.2-0.1C-279.7-23.5-279.7-23.5-279.8-23.5z M-279.8-26.9c-0.1,0-0.2,0-0.2,0.1
			c0,0.1,0.1,0.1,0.2,0.1c0.1,0,0.2,0,0.2-0.1C-279.6-26.8-279.7-26.9-279.8-26.9z M-293.5-25.1c-0.1,0-0.1,0-0.2,0
			c-0.1,0-0.1,0.1,0,0.2c0,0,0,0,0,0c0.1,0,0.1,0,0.2,0C-293.4-24.9-293.4-25-293.5-25.1C-293.5-25.1-293.5-25.1-293.5-25.1z
			 M-290.7-27.4c-0.1,0-0.1,0-0.2,0c-0.1,0-0.1,0.1,0,0.2c0,0,0,0,0,0c0.1,0,0.1,0,0.2,0C-290.6-27.3-290.6-27.4-290.7-27.4
			C-290.7-27.4-290.7-27.4-290.7-27.4z M-278.8-27.5c-0.1,0-0.1,0-0.1,0s0,0.1,0.1,0.1C-278.8-27.4-278.7-27.4-278.8-27.5
			C-278.7-27.5-278.8-27.5-278.8-27.5z M-278.4-29.3c-0.1,0-0.1,0-0.1,0c0,0,0,0.1,0.1,0.1S-278.4-29.2-278.4-29.3
			C-278.3-29.3-278.4-29.3-278.4-29.3z M-281.3-24.6c-0.1,0-0.2,0-0.2,0c-0.1,0-0.1,0.1,0.1,0.1c0.1,0,0.2,0,0.2,0c0,0,0,0,0,0
			C-281.2-24.5-281.2-24.6-281.3-24.6L-281.3-24.6z M-279.4-27.2c-0.1,0-0.2,0-0.2,0s0,0.1,0.1,0.2c0.1,0,0.2,0,0.2,0
			C-279.3-27.1-279.3-27.1-279.4-27.2L-279.4-27.2z M-277.5-29.8c-0.1,0-0.2,0-0.2,0s0,0.1,0.1,0.2c0.1,0,0.2,0,0.2,0
			C-277.4-29.7-277.4-29.7-277.5-29.8L-277.5-29.8z"/>
		
			<linearGradient id="SVGID_00000117673390358949036110000018004867103356213926_" gradientUnits="userSpaceOnUse" x1="-749.4079" y1="942.8014" x2="-768.4644" y2="972.4451" gradientTransform="matrix(2.9541 -0.6824 -0.6844 -2.9626 2512.3489 2228.0454)">
			<stop  offset="0" style="stop-color:#FFBEB6"/>
			<stop  offset="1" style="stop-color:#F2A19C"/>
		</linearGradient>
		<path style="fill:url(#SVGID_00000117673390358949036110000018004867103356213926_);" d="M-337-56.4c0,0-11.4-3.2-19.8-10.2
			c-6.7-5.5-12.3-9.4-12.8-9c-0.5,0.4-1.2,1.9,1.2,3.8c2.4,2,4.2,3.3,3.4,5c-0.8,1.7-3.7,6.8,2.7,8.4c6.5,1.7,7.8-0.2,10.8,3.3
			c1.9,2.3,5.2,6.1,6.8,8.7L-337-56.4z"/>
		
			<linearGradient id="SVGID_00000049926673297303755480000015692378844689339825_" gradientUnits="userSpaceOnUse" x1="-708.5628" y1="202.8185" x2="-720.7592" y2="168.2617" gradientTransform="matrix(3.0319 0 0 -3.0406 1862.5424 551.6703)">
			<stop  offset="0" style="stop-color:#23286B"/>
			<stop  offset="1" style="stop-color:#151A4F"/>
		</linearGradient>
		<path style="fill:url(#SVGID_00000049926673297303755480000015692378844689339825_);" d="M-270.2-29.8c0,0-19.7,13-50.9,3.9
			c0,0,12.3-47.9,12.7-54.2c0,0,6.9-1.4,7.9-5.2C-293.5-79.1-271.2-64.4-270.2-29.8L-270.2-29.8z"/>
		<path class="st12" d="M-302.6-83.2c4.8,4,9.3,8.4,13.4,13.2c5.3,21.3-2.4,33-11,40.9c-8.8,8-21,6.8-25.5,4.6
			c-1.9-0.9-6.4-2.8-13.7-1.2c-7.4,1.7-14.2-3.4-14.2-3.4l11.4-29.1c18,6.8,23.5,4.3,29.4-0.6c7.1-5.8,5.6-30.8,5.6-30.8
			C-305.4-87.8-304.6-84.8-302.6-83.2L-302.6-83.2z"/>
		
			<linearGradient id="SVGID_00000062157935730082132880000010018535243509131649_" gradientUnits="userSpaceOnUse" x1="-715.2405" y1="140.1688" x2="-714.1451" y2="158.6379" gradientTransform="matrix(3.0319 0 0 -3.0406 1862.5424 353.6703)">
			<stop  offset="0" style="stop-color:#FFBEB6"/>
			<stop  offset="1" style="stop-color:#F2A19C"/>
		</linearGradient>
		<path style="fill:url(#SVGID_00000062157935730082132880000010018535243509131649_);" d="M-300.3-85c-1.3,4.2-8,5-8,5
			c0.2-4-0.6-8.9-1.4-10.5c2.3,0,4.6-0.3,6.8-0.9C-302.4-89.2-301.5-87-300.3-85L-300.3-85z"/>
		<path class="st14" d="M-298.2-104c5.4,5.8-1.1,13.5-4.8,13.9c-2.6,0.7-9.2,0.7-11.2-1.8c-1.9-2.4-1.3-4.9-1.9-5.1
			s-1.7-0.9-1.6-1.5c0.1-0.6,2.2-2,3-4.3c0.1-0.2,0.1-0.4,0.3-0.6c0,0,0-0.1,0.1-0.1c0.6-1.3,0.9-3.4,2.1-4.4
			C-312.3-107.9-303.6-109.8-298.2-104L-298.2-104z"/>
		<path class="st3" d="M-267.1-55c-1.8-2.9-4.7-4.9-7.1-7.2c-4.5-4.2-0.8-9.6-1.5-14.6c0.1-1.6-0.5-3.2-1.5-4.5
			c-2.8-3.1-7.6-3.3-10.9-7.9c-1.3-1.8-2.4-6.8-2.9-9.7c-0.6-4.3-0.9-10-7.6-13.4c-4.9-2.5-10.1-0.6-12.3,0.9
			c-2.2,1.5-3.5,3.4-2.7,5.3c0,0,0.9-1.6,1.4-1.7c0,0,2.3,5.8,8.4,5.2c1.3-0.1,4-0.1,3.4,2.2c-0.5,1.8-2.8,2.2-2.9,2.6
			c-1.2,5-0.2,12.7,9.2,18.7c12.5,8,11.2,29.8,11.7,31.9l15.2,0.9c0,0,0.9-7.3-5-12.3c-5.8-5-6-5.9-5-10.5c0.3-1.2,0.6-2.3,0.8-3.5
			c-0.5,3.4-1.3,6.8,0.8,9.8c1.5,2,3.9,3.3,5.6,5.1c2.9,3.1,4.6,7.1,4.9,11.3c0,0.1,0.1,0.2,0.2,0.2c0.1,0,0.2-0.1,0.2-0.2
			C-264.7-49.5-265.6-52.4-267.1-55L-267.1-55z"/>
		<path class="st15" d="M-311.8-103c-0.7,0.8-2,1-2.8,0.3c-0.3-0.3-0.5-0.6-0.6-1c-0.1-0.3,0.4-0.5,0.4-0.2c0.2,0.8,1,1.3,1.8,1.1
			c0,0,0,0,0.1,0c0.3-0.1,0.6-0.3,0.8-0.5C-312-103.5-311.6-103.2-311.8-103z"/>
	</g>
	<g transform="translate(468.75 965.625) rotate(0.0 272.8125 489.375)  scale(2.9158472456766638 2.899158170368308)">
		<path class="st14" d="M-89.7-181.1c0,0,9.2-4.5,12-9.8c2.8-5.3,3.7-8.5,5.7-9.6c2.9-1.6,7.7-2,8.3-1.1c0.5,0.8-0.4,0.8-2.4,1.4
			c-0.9,0.2-1.7,0.6-2.5,1.2c-0.2,0.2,1.5,0.6,1.8,1.2c0.3,0.7,0.1,2.2-0.4,3.4c-0.9,2.6,0.2,2.7-5,4.2c-3.8,1-8.3,17.3-16.1,23
			C-96.1-161.4-89.3-181.1-89.7-181.1c-0.4,0,1.4,14,1.4,14"/>
		<path class="st7" d="M-79.3-170.9c-5.3,4.1-11.4,7-17.9,8.7c-5.2,1.3-10.6,0.4-15.2-2.3c-9.7-5.9-16.5-10.4-9.1-25.3
			c1.2-2.5,7.7-8.4,7.9-8.6l4.5,2.8c0,0-1.3,3.7,0.5,6.6c3.5,9.4,15.9,7.2,22.4,0.1L-79.3-170.9z"/>
		
			<linearGradient id="SVGID_00000016071041524452816510000004772224650000637872_" gradientUnits="userSpaceOnUse" x1="-271.3972" y1="43.5907" x2="-242.5955" y2="28.2788" gradientTransform="matrix(2.9158 0 0 -2.8992 633.0117 30.0271)">
			<stop  offset="0" style="stop-color:#E94A47"/>
			<stop  offset="0.992" style="stop-color:#D62929"/>
		</linearGradient>
		<path style="fill:url(#SVGID_00000016071041524452816510000004772224650000637872_);" d="M-138.6-89.8l-4.6,11.8l33.1,0.1
			c0,0-2.8-3.5-8.3-6c-5.5-2.6-8.2-5.9-8.2-5.9L-138.6-89.8z"/>
		<path class="st3" d="M-126.4-89.8L-131-78l33.1,0.1c-2.3-2.6-5.2-4.6-8.3-6.1c-5.4-2.6-8.2-5.9-8.2-5.9L-126.4-89.8"/>
		
			<linearGradient id="SVGID_00000116953623563921282170000006039577337379164080_" gradientUnits="userSpaceOnUse" x1="-270.3676" y1="63.6529" x2="-244.5033" y2="32.5406" gradientTransform="matrix(2.9158 0 0 -2.8992 633.0117 30.0271)">
			<stop  offset="0" style="stop-color:#23286B"/>
			<stop  offset="1" style="stop-color:#151A4F"/>
		</linearGradient>
		<path style="fill:url(#SVGID_00000116953623563921282170000006039577337379164080_);" d="M-141.5-89.7c0,0-1.4-11.4,3-23.1
			c4.4-11.7,5.9-10,7.3-17.9c1.5-8.6-1.6-25.1-1.6-25.1l16.8,0.7c0,0,1.7,23.6,0.4,29.6s-9.5,35.9-9.5,35.9H-141.5z"/>
		<path class="st12" d="M-134.8-158.4c0,0,2.3,11.8,6.1,20.7c3.8,8.9,0.5,13.7-0.9,21.1c-1.4,7.5-3.5,20.1-0.2,26.8l15.4,0
			c0,0,4.8-30.7,4.8-37.4c0-6.7-1.4-31.2-1.4-31.2H-134.8z"/>
		<path class="st9" d="M-126.1-149.6C-126.1-149.7-126.2-149.7-126.1-149.6c-0.1,0-0.1,0-0.1,0S-126.2-149.5-126.1-149.6
			C-126.1-149.5-126.1-149.6-126.1-149.6z M-130.7-148.5C-130.7-148.5-130.7-148.5-130.7-148.5c-0.1,0-0.1,0-0.1,0
			S-130.8-148.4-130.7-148.5C-130.7-148.4-130.6-148.4-130.7-148.5z M-125.5-152.4C-125.5-152.4-125.6-152.4-125.5-152.4
			c-0.1,0-0.1,0-0.1,0C-125.7-152.3-125.6-152.3-125.5-152.4C-125.5-152.3-125.5-152.3-125.5-152.4z M-126.8-142
			c-0.1,0-0.1,0.1-0.1,0.2c0,0.1,0.1,0.1,0.1,0.1c0.1,0,0.1-0.1,0.1-0.2C-126.6-141.9-126.7-142-126.8-142z M-125.8-144.6
			c-0.1,0-0.1,0.1-0.1,0.2s0.1,0.1,0.2,0.1c0.1,0,0.1-0.1,0.1-0.2C-125.7-144.5-125.7-144.6-125.8-144.6z M-125.7-148.1
			c-0.1,0-0.1,0.1-0.1,0.2c0,0.1,0.1,0.1,0.1,0.1c0.1,0,0.1-0.1,0.1-0.1C-125.5-148.1-125.6-148.1-125.7-148.1z M-127.1-150.8
			c-0.1,0-0.1,0.1-0.1,0.2c0,0.1,0.1,0.1,0.2,0.1c0.1,0,0.1-0.1,0.1-0.2S-127-150.8-127.1-150.8z M-131.1-150.6
			c-0.1,0-0.2,0-0.2,0.1c0,0.1,0,0.2,0.1,0.2c0.1,0,0.1,0,0.2-0.1C-131-150.5-131-150.6-131.1-150.6z M-131.4-153.2
			c-0.1,0-0.2,0-0.2,0.1c0,0.1,0,0.1,0.1,0.2c0.1,0,0.2,0,0.2-0.1C-131.3-153.1-131.4-153.2-131.4-153.2z M-130-145.3
			c-0.1,0-0.1,0-0.2,0.1c0,0.1,0,0.1,0.1,0.2c0.1,0,0.1,0,0.2-0.1C-129.9-145.2-129.9-145.2-130-145.3z M-129-147.2
			c-0.1,0-0.1,0-0.2,0.1c0,0.1,0,0.1,0.1,0.2c0.1,0,0.2,0,0.2-0.1C-128.9-147.1-128.9-147.2-129-147.2
			C-129-147.2-129-147.2-129-147.2L-129-147.2z M-128.9-150.7c-0.1,0-0.1,0-0.2,0.1c0,0,0,0.1,0.1,0.1c0.1,0,0.1,0,0.2-0.1
			C-128.8-150.6-128.8-150.7-128.9-150.7z M-127.1-154.4c-0.1,0-0.2,0-0.2,0.1s0,0.2,0.1,0.2c0.1,0,0.2,0,0.2-0.1
			C-127-154.3-127-154.4-127.1-154.4L-127.1-154.4z M-122.4-145.4c-0.1,0-0.1,0.1-0.1,0.2c0,0.1,0.1,0.1,0.1,0.1
			c0.1,0,0.1-0.1,0.1-0.1C-122.2-145.3-122.3-145.4-122.4-145.4L-122.4-145.4z M-124.4-148.7c-0.1,0-0.1,0.1-0.1,0.2
			c0,0.1,0.1,0.1,0.1,0.1c0.1,0,0.1-0.1,0.1-0.1C-124.2-148.7-124.3-148.8-124.4-148.7z M-129.5-151.8c-0.1,0-0.1,0.1-0.1,0.1
			c0,0.1,0.1,0.1,0.1,0.1c0.1,0,0.1-0.1,0.1-0.1C-129.4-151.7-129.5-151.8-129.5-151.8z M-127.9-152C-128-152-128-152-127.9-152
			c-0.1,0.1-0.1,0.1,0,0.1S-127.9-151.8-127.9-152C-127.9-151.9-127.9-152-127.9-152L-127.9-152z M-124.4-146.3
			C-124.5-146.3-124.5-146.3-124.4-146.3c-0.1,0.1-0.1,0.1,0,0.1C-124.4-146.2-124.4-146.2-124.4-146.3
			C-124.4-146.2-124.4-146.3-124.4-146.3L-124.4-146.3z M-128.3-145.1C-128.4-145.1-128.4-145.1-128.3-145.1c-0.1,0.1-0.1,0.1,0,0.1
			C-128.3-145-128.3-145-128.3-145.1C-128.3-145.1-128.3-145.1-128.3-145.1L-128.3-145.1z M-124-150C-124.1-150-124.1-149.9-124-150
			c-0.1,0.1-0.1,0.2,0,0.2c0,0,0.1,0,0.1,0C-123.9-149.9-124-150-124-150z M-128.9-153.3c0,0-0.1,0-0.1,0c0,0,0,0.1,0,0.1
			c0,0,0.1,0,0.1,0C-128.8-153.2-128.8-153.3-128.9-153.3z M-129.4-149.6c-0.1,0-0.2,0-0.2,0s0,0.2,0,0.2c0.1,0,0.2,0,0.2,0
			C-129.3-149.4-129.3-149.5-129.4-149.6z M-127.1-152.7c-0.1-0.1-0.2,0-0.2,0c0,0,0,0,0,0c0,0.1,0,0.2,0,0.2s0.2,0,0.2,0
			C-127-152.6-127-152.7-127.1-152.7z M-123.9-144.4c-0.1,0-0.2,0-0.2,0.1c0,0.1,0,0.2,0.1,0.2c0.1,0,0.2,0,0.2-0.1
			C-123.8-144.3-123.9-144.4-123.9-144.4z M-122.5-147.2c-0.1,0-0.2,0-0.2,0.1c0,0.1,0,0.2,0.1,0.2c0.1,0,0.2,0,0.2-0.1
			C-122.4-147.1-122.4-147.2-122.5-147.2z M-121-143.3c-0.1,0-0.2,0-0.2,0.1c0,0.1,0,0.2,0.1,0.2s0.2,0,0.2-0.1
			S-120.9-143.3-121-143.3z M-126.9-148.9c-0.1,0-0.2,0-0.2,0c0,0.1,0,0.2,0,0.2c0.1,0,0.2,0,0.2,0
			C-126.8-148.7-126.8-148.8-126.9-148.9C-126.9-148.9-126.9-148.9-126.9-148.9z M-125.3-151.3c-0.1,0-0.2,0-0.2,0
			c0,0.1,0,0.2,0,0.2s0.2,0,0.2,0C-125.2-151.1-125.3-151.2-125.3-151.3z"/>
		
			<linearGradient id="SVGID_00000012468583390006093650000000519703210551756970_" gradientUnits="userSpaceOnUse" x1="-252.904" y1="72.8763" x2="-283.2367" y2="42.5436" gradientTransform="matrix(2.9158 0 0 -2.8992 633.0117 30.0271)">
			<stop  offset="0" style="stop-color:#A1C3FC"/>
			<stop  offset="1" style="stop-color:#81AEF2"/>
		</linearGradient>
		<path style="fill:url(#SVGID_00000012468583390006093650000000519703210551756970_);" d="M-102.2-155.1c-20,4.9-35.6-5.1-35.6-5.1
			c0-4.1,0.3-8.8,3.2-12c4.1-4.6,3.5-7.7,7.4-13.5c6.7-10,13.5-12.8,13.5-12.8c3.4,0,5.2,0.5,7.3,2.4
			C-106.6-176.1-102.2-155.1-102.2-155.1z"/>
		
			<linearGradient id="SVGID_00000075148195353472772220000006861401379716667278_" gradientUnits="userSpaceOnUse" x1="-181.2478" y1="488.8693" x2="-174.3903" y2="499.7191" gradientTransform="matrix(2.887 -0.4092 -0.4069 -2.8705 610.4626 1135.5695)">
			<stop  offset="0" style="stop-color:#FFBEB6"/>
			<stop  offset="1" style="stop-color:#F29B94"/>
		</linearGradient>
		<path style="fill:url(#SVGID_00000075148195353472772220000006861401379716667278_);" d="M-106.3-195.6c-3.2-0.7-5.5-1.7-7.3-2.9
			c0,0,2.3-4.8,2.1-5.7l0.5,0.3c0,0,0,0.1,0,0.1c-0.1,0.2-0.2,0.4-0.4,0.6l0.3,0.2c0.1,0,0.2,0.1,0.3,0.2l1.3,0.7
			c1.2,0.7,2.5,1.2,3.8,1.3C-106-199.1-106.2-197.3-106.3-195.6L-106.3-195.6z"/>
		<path class="st14" d="M-102.1-202c2.3-1.6,2.9-4.5,3.5-4.5s1.7-0.5,1.7-1.1c0-0.6-1.3-2.3-1.9-4.5c-0.4-1.6-0.6-2.9-0.7-3.2
			c-2.4-1.9-5.4-2.5-9.2-0.8c-5,2.1-7.5,4.9-7.3,8.9c1.3,2.7,4.9,4.7,4.8,4.9l0.3,0.2c0.1,0,0.2,0.1,0.3,0.1l1.3,0.5
			C-106.8-200.7-104.2-200.4-102.1-202L-102.1-202z"/>
		<path class="st12" d="M-120.8-215.1c0,0,0.2,1.4,0.9,3.7c0.4,1.7,1.2,3.2,2.2,4.6c2.4,3,6.3,4.4,7.6,4.7c0.1-0.5,0.2-1.1,0.1-1.6
			c0-0.1,0-0.1-0.1-0.2c0,0,0-0.1,0-0.1c0-0.1-0.1-0.2-0.2-0.3c-0.1-0.1-0.2-0.2-0.3-0.3c-0.1-0.1-0.3-0.2-0.5-0.3
			c-0.5-0.2-1-0.4-1.4-0.7c-0.2-0.2-0.4-0.3-0.6-0.6c0,0,0,0,0,0c-0.1-0.1-0.1-0.2-0.2-0.3c-0.2-0.3-0.2-0.6-0.2-1v0
			c0-0.2,0.1-0.3,0.2-0.5c0,0,0,0,0,0c0.1-0.1,0.1-0.2,0.2-0.3c0.1-0.2,0.3-0.3,0.4-0.5c0.9-0.7,1.8,0.6,3.1-0.1
			c1.5-0.8,2.6-3.3,2.7-3.5c0,0,0,0,0,0c0,0,0,0,0,0l0,0c1.4,0.4,4.8,1,7.3-0.2c0.1,0,0.2-0.1,0.3-0.2c2.5-1.2,5-3,5.3-8.7
			L-120.8-215.1z"/>
		<path class="st12" d="M-99.6-203.2c-0.1,0-0.2-0.1-0.2-0.2c-0.1-0.6-0.6-1-1.1-0.9c-0.3,0-0.5,0.2-0.7,0.4c-0.1,0.1-0.2,0.1-0.3,0
			c-0.1-0.1-0.1-0.2,0-0.3l0,0c0.5-0.6,1.4-0.7,2-0.2c0.3,0.2,0.5,0.6,0.5,1C-99.4-203.3-99.5-203.2-99.6-203.2
			C-99.6-203.2-99.6-203.2-99.6-203.2L-99.6-203.2z"/>
		
			<linearGradient id="SVGID_00000007390011775089437970000006070146183908300700_" gradientUnits="userSpaceOnUse" x1="5964.4609" y1="1278.0482" x2="5964.4609" y2="1309.0908" gradientTransform="matrix(-2.4901 1.5162 -1.5076 -2.4759 16683.4414 -6017.2554)">
			<stop  offset="0" style="stop-color:#FFBEB6"/>
			<stop  offset="1" style="stop-color:#F2A19C"/>
		</linearGradient>
		<path style="fill:url(#SVGID_00000007390011775089437970000006070146183908300700_);" d="M-101.2-141.5c5.2,4.8,3.9,4.6,5.7,7.5
			c1.5,2.4,3.7,1.9,6.8,0.1c4-2.4,0.3-5,0.3-5c0.4,0.1,0.9,0.2,1.3,0.1c0.3,0,0.5-0.3,0.5-0.6c0-0.2-0.1-0.3-0.3-0.4
			c-3.5-2.3-3.6-2.6-6.9-3.1c-3.8-0.1-13.1-15.3-13.9-16.7c-1.7,2.2-5.5,3.6-7.9,5.1C-114.3-153.7-105.4-145.5-101.2-141.5
			L-101.2-141.5z"/>
		<path class="st8" d="M-113.3-197.8c0,0-17.1,34.2-0.7,54.4c0,0,15.9-13.4,16.9-14c0,0-11.1-17.9-10.8-38.2c-1-0.2-1.9-0.5-2.8-0.8
			C-112.8-197.1-113.3-197.8-113.3-197.8L-113.3-197.8z"/>
		
			<linearGradient id="SVGID_00000085969527467452683430000017947558137642631099_" gradientUnits="userSpaceOnUse" x1="5962.1143" y1="764.7283" x2="5962.1143" y2="766.5933" gradientTransform="matrix(-2.4901 1.5162 -1.5076 -2.4759 16683.4414 -6017.2554)">
			<stop  offset="0" style="stop-color:#FFBEB6"/>
			<stop  offset="1" style="stop-color:#F2A19C"/>
		</linearGradient>
		<path style="fill:url(#SVGID_00000085969527467452683430000017947558137642631099_);" d="M-88.4-138.9l-2.7-1.8c0,0,2.9,1.5,4.4,1
			C-86.7-139.6-85.9-138.3-88.4-138.9z"/>
	</g>
</g>
</svg>
