<?xml version="1.0" encoding="utf-8"?>
<!-- Generator: Adobe Illustrator 27.0.0, SVG Export Plug-In . SVG Version: 6.00 Build 0)  -->
<svg version="1.1" id="Layer_1" xmlns="http://www.w3.org/2000/svg" xmlns:xlink="http://www.w3.org/1999/xlink" x="0px" y="0px"
	 viewBox="0 0 800 800" style="enable-background:new 0 0 800 800;" xml:space="preserve">
<style type="text/css">
	.st0{fill:#36A9E1;}
	.st1{fill:url(#SVGID_1_);}
	.st2{fill:#FBCBAB;}
	.st3{fill:#ECA182;}
	.st4{fill:#DB9172;}
	.st5{fill:#1D2247;}
	.st6{fill:#373F85;}
	.st7{filter:url(#Adobe_OpacityMaskFilter);}
	.st8{filter:url(#Adobe_OpacityMaskFilter_00000023248900911061449690000001394018764838133654_);}
	
		.st9{mask:url(#SVGID_00000116193514735375151370000000984080380285064373_);fill:url(#SVGID_00000060712467842711849190000010266376701444693949_);}
	.st10{fill:url(#SVGID_00000125580276308026794490000017041638638963518855_);}
</style>
<g>
	<circle class="st0" cx="400" cy="430.5" r="359.5"/>
	<linearGradient id="SVGID_1_" gradientUnits="userSpaceOnUse" x1="95.867" y1="651.3795" x2="704.1026" y2="651.3795">
		<stop  offset="0" style="stop-color:#2581C4"/>
		<stop  offset="1" style="stop-color:#2D2E83"/>
	</linearGradient>
	<path class="st1" d="M704.1,622.2C640.5,723.1,528,790,400,790c-128,0-240.4-66.9-304.1-167.8c11.4-26.4,30.1-49.1,60.4-66.6
		c27.7-16,66.5-26.8,109.4-33.5c42.9-6.7,89.9-9.4,134.3-9.4c88.7,0,188.2,10.8,243.7,42.9C674,573.2,692.8,595.9,704.1,622.2z"/>
	<path class="st2" d="M488.6,518v-85.7H311.4V518c-26.9,4.6-45.6,13.8-45.6,33.1c0,37.7,51,76.8,134.2,76.8
		c86.1,0,134.2-39.2,134.2-76.8C534.2,531.8,515.5,522.6,488.6,518z"/>
	<path class="st2" d="M291.9,327.6c0-26.6-11.7-59-26.1-59c-14.4,0-29.1,5.1-29.1,31.7c0,12.8,4.6,41.5,9,54.1
		c4.8,13.5,12.7,21.3,20.2,21.3C280.2,375.8,291.9,354.2,291.9,327.6z"/>
	<path class="st3" d="M508.1,327.6c0-26.6,11.7-59,26.1-59s29.1,5.1,29.1,31.7c0,12.8-4.6,41.5-9,54.1
		c-4.8,13.5-12.7,21.3-20.2,21.3C519.8,375.8,508.1,354.2,508.1,327.6z"/>
	<path class="st4" d="M488.6,452.4v45.4c-3.7,3.2-7.5,6.3-11.6,9.1c-15.4,10.9-26.3,17.9-36.4,22.1c-10.2,4.3-19.5,5.8-31.9,5.8
		c-24.8,0-37.5-6.2-68.3-27.9c-10.9-7.7-20.5-16.7-28.9-27.2v-27.4c6.1,6.4,12.9,12.2,20.2,17.3c30.9,21.7,43.6,28,68.4,28
		c12.4,0,21.8-1.6,31.9-5.8c10.1-4.3,21-11.3,36.4-22.1C475.7,464.6,482.4,458.8,488.6,452.4z"/>
	<path class="st2" d="M400,104.9L400,104.9L400,104.9c-106.6,0-135.7,91.9-135.7,205.2c0,75.2,23.5,128.7,67.3,159.6
		c30.8,21.7,43.5,28,68.4,28v0v0c24.8,0,37.5-6.2,68.4-28c43.8-30.9,67.3-84.4,67.3-159.6C535.7,196.8,506.6,104.9,400,104.9z"/>
	<path class="st3" d="M400,104.9c-1.8,0-3.6,0.1-5.4,0.1c94.3,3.1,120.3,93.7,120.3,205.1c0,75.2-21.7,128.7-62.2,159.6
		c-26.3,20.1-38.4,26.9-58.1,27.8c1.7,0.1,3.5,0.1,5.4,0.1c24.8,0,37.5-6.2,68.4-28c43.8-30.9,67.3-84.4,67.3-159.6
		C535.7,196.8,506.6,104.9,400,104.9z"/>
	<path class="st5" d="M569.6,158.1c-2.6-21.3-19-73.7-43.6-77c-11.2-1.5-18.2,4.8-26.7,0.8c-6.9-3.2-36.8-39.9-62.5-52.8
		c-31.1-15.5-76.6-25.1-107.4-15.1c-37.9,12.3-36.4,43.4-50.9,55.4c-14.5,12-39.4,25.8-41.4,43.7c-3.1,27.1,10.1,48.5,9.1,74.1
		c-0.8,20.6-12.9,40.4-7.9,61.3c2.7,11.1,16.3,19.2,18.3,30.5c1.2,6.5,2.8,22.4,7.6,27.7c10.3,11.4,10.3-61.8,12.7-83.6
		c2-18.4,7.8-38.9,18.3-54.6c13.6-20.1,35.4-17.8,56.7-13.1c21.7,4.7,42,9.1,64.5,6.4c22.5-2.6,46.4-12.7,68.3-2.2
		c20.6,9.9,32.6,32.3,37.5,53.7c2.4,10.7,0.4,83.1,11.7,87.9c6,2.5,8.1-21.4,19.5-29.4c9.7-6.9,12.6-15.3,14.8-26.8
		C573.8,216.8,573.1,186.5,569.6,158.1z"/>
	<path class="st4" d="M534.2,301.3c-11.4-4.8-9.3-77.3-11.7-87.9c-4.9-21.4-16.9-43.8-37.5-53.7c-22-10.6-45.8-0.5-68.4,2.2
		c-22.5,2.7-42.8-1.7-64.5-6.4c-21.4-4.7-43.1-7-56.7,13.1c-10.6,15.7-16.3,36.2-18.3,54.6c-2.2,20.3-2.4,84.8-10.7,84.8
		c8.8,1,12.3-52.1,14.6-70c2-16.2,5.8-43.1,16.5-56.8c20.4-26.2,42.2-19.2,62.7-11.9c22.7,8.1,33.9,12.4,56.4,10.1
		c22.5-2.3,46.4-11.2,68.4-1.9c20.6,8.7,33.9,26.1,36.7,49.9c1.1,9.7,1.1,70.6,12.5,74.8c0.6,0.2,1.1,0,1.3-0.7
		C535.1,301.6,534.6,301.5,534.2,301.3z M263.5,305.7c0.2,0.5,0.5,0.9,0.8,1.2c0.3,0.3,0.5,0.5,0.8,0.6c-0.3-0.2-0.5-0.5-0.8-0.8
		C264.1,306.5,263.8,306.1,263.5,305.7z"/>
	<path class="st6" d="M345.7,42.2c40-31.6,139.6,26.7,126.9,14.5c-11-10.5-23.8-21.6-35.7-27.5c-31.1-15.5-76.6-25.1-107.4-15.1
		c-37.9,12.3-36.4,43.4-50.9,55.4c-14.5,12-39.4,25.8-41.4,43.7c-3.1,27.1,10.1,48.5,9.1,74.1c-0.8,20.6-12.9,40.4-7.9,61.3
		c2.7,11.1,0.6-19.8,14.6-39.2c13.7-19,12.4-53,1-84.4c-4.4-12.2,0.6-49.4,48.3-42.2C324.2,86.1,338.4,48,345.7,42.2z"/>
	<g>
		<defs>
			<filter id="Adobe_OpacityMaskFilter" filterUnits="userSpaceOnUse" x="40.5" y="10" width="719" height="780">
				<feFlood  style="flood-color:white;flood-opacity:1" result="back"/>
				<feBlend  in="SourceGraphic" in2="back" mode="normal"/>
			</filter>
		</defs>
		
			<mask maskUnits="userSpaceOnUse" x="40.5" y="10" width="719" height="780" id="SVGID_00000088830459638660716450000012456201951762458247_">
			<g class="st7">
				<defs>
					
						<filter id="Adobe_OpacityMaskFilter_00000181065074336957426000000013297977938516427916_" filterUnits="userSpaceOnUse" x="40.5" y="10" width="719" height="780">
						<feFlood  style="flood-color:white;flood-opacity:1" result="back"/>
						<feBlend  in="SourceGraphic" in2="back" mode="normal"/>
					</filter>
				</defs>
				
					<mask maskUnits="userSpaceOnUse" x="40.5" y="10" width="719" height="780" id="SVGID_00000088830459638660716450000012456201951762458247_">
					<g style="filter:url(#Adobe_OpacityMaskFilter_00000181065074336957426000000013297977938516427916_);">
					</g>
				</mask>
				
					<linearGradient id="SVGID_00000109747249429407902500000012508742565902420905_" gradientUnits="userSpaceOnUse" x1="40.5118" y1="399.9965" x2="759.4884" y2="399.9965">
					<stop  offset="0" style="stop-color:#BFBFBF"/>
					<stop  offset="1" style="stop-color:#000000"/>
				</linearGradient>
				
					<path style="mask:url(#SVGID_00000088830459638660716450000012456201951762458247_);fill:url(#SVGID_00000109747249429407902500000012508742565902420905_);" d="
					M551.8,104.6c-7-12.4-15.7-22.1-25.8-23.4c-11.2-1.5-18.2,4.8-26.7,0.8c-6.9-3.2-36.8-39.9-62.5-52.8
					c-31.1-15.5-76.6-25.1-107.4-15.1c-37.9,12.3-36.4,43.4-50.9,55.4c-13.5,11.2-35.9,23.9-40.7,40.1
					c-117.1,59.3-197.5,180.7-197.5,321C40.5,629,201.5,790,400,790S759.5,629,759.5,430.5C759.5,286.2,674.5,161.8,551.8,104.6z"/>
			</g>
		</mask>
		
			<linearGradient id="SVGID_00000052796809514370333490000015141150863083805375_" gradientUnits="userSpaceOnUse" x1="40.5118" y1="399.9965" x2="759.4884" y2="399.9965">
			<stop  offset="0" style="stop-color:#2581C4"/>
			<stop  offset="1" style="stop-color:#29235C"/>
		</linearGradient>
		<path style="fill:url(#SVGID_00000052796809514370333490000015141150863083805375_);" d="M551.8,104.6
			c-7-12.4-15.7-22.1-25.8-23.4c-11.2-1.5-18.2,4.8-26.7,0.8c-6.9-3.2-36.8-39.9-62.5-52.8c-31.1-15.5-76.6-25.1-107.4-15.1
			c-37.9,12.3-36.4,43.4-50.9,55.4c-13.5,11.2-35.9,23.9-40.7,40.1c-117.1,59.3-197.5,180.7-197.5,321C40.5,629,201.5,790,400,790
			S759.5,629,759.5,430.5C759.5,286.2,674.5,161.8,551.8,104.6z"/>
	</g>
</g>
</svg>
